G04 #@! TF.GenerationSoftware,KiCad,Pcbnew,(5.1.4-0)*
G04 #@! TF.CreationDate,2022-06-22T14:12:09-04:00*
G04 #@! TF.ProjectId,wheeler_lights,77686565-6c65-4725-9f6c-69676874732e,rev?*
G04 #@! TF.SameCoordinates,Original*
G04 #@! TF.FileFunction,Copper,L2,Bot*
G04 #@! TF.FilePolarity,Positive*
%FSLAX46Y46*%
G04 Gerber Fmt 4.6, Leading zero omitted, Abs format (unit mm)*
G04 Created by KiCad (PCBNEW (5.1.4-0)) date 2022-06-22 14:12:09*
%MOMM*%
%LPD*%
G04 APERTURE LIST*
%ADD10C,2.000000*%
%ADD11O,1.700000X1.700000*%
%ADD12R,1.700000X1.700000*%
%ADD13C,0.800000*%
%ADD14C,0.254000*%
G04 APERTURE END LIST*
D10*
X66830000Y-41315000D03*
X66830000Y-45815000D03*
X60330000Y-41315000D03*
X60330000Y-45815000D03*
X89030000Y-41215000D03*
X89030000Y-45715000D03*
X82530000Y-41215000D03*
X82530000Y-45715000D03*
X105030000Y-41315000D03*
X105030000Y-45815000D03*
X98530000Y-41315000D03*
X98530000Y-45815000D03*
D11*
X64540000Y-36000000D03*
D12*
X62000000Y-36000000D03*
D13*
X59730000Y-62215000D03*
X72530000Y-56215000D03*
X93030000Y-59315000D03*
D14*
G36*
X63710986Y-34759294D02*
G01*
X63484866Y-34944866D01*
X63299294Y-35170986D01*
X63161401Y-35428966D01*
X63076487Y-35708889D01*
X63047815Y-36000000D01*
X63076487Y-36291111D01*
X63161401Y-36571034D01*
X63299294Y-36829014D01*
X63484866Y-37055134D01*
X63710986Y-37240706D01*
X63968966Y-37378599D01*
X64248889Y-37463513D01*
X64467050Y-37485000D01*
X64612950Y-37485000D01*
X64831111Y-37463513D01*
X65111034Y-37378599D01*
X65369014Y-37240706D01*
X65595134Y-37055134D01*
X65776579Y-36834042D01*
X70815000Y-36834042D01*
X70815000Y-37165958D01*
X70879754Y-37491496D01*
X71006772Y-37798147D01*
X71191175Y-38074125D01*
X71425875Y-38308825D01*
X71701853Y-38493228D01*
X72008504Y-38620246D01*
X72334042Y-38685000D01*
X72665958Y-38685000D01*
X72991496Y-38620246D01*
X73298147Y-38493228D01*
X73574125Y-38308825D01*
X73808825Y-38074125D01*
X73993228Y-37798147D01*
X74120246Y-37491496D01*
X74185000Y-37165958D01*
X74185000Y-36834042D01*
X90815000Y-36834042D01*
X90815000Y-37165958D01*
X90879754Y-37491496D01*
X91006772Y-37798147D01*
X91191175Y-38074125D01*
X91425875Y-38308825D01*
X91701853Y-38493228D01*
X92008504Y-38620246D01*
X92334042Y-38685000D01*
X92665958Y-38685000D01*
X92991496Y-38620246D01*
X93298147Y-38493228D01*
X93574125Y-38308825D01*
X93808825Y-38074125D01*
X93993228Y-37798147D01*
X94120246Y-37491496D01*
X94185000Y-37165958D01*
X94185000Y-36834042D01*
X94120246Y-36508504D01*
X93993228Y-36201853D01*
X93808825Y-35925875D01*
X93574125Y-35691175D01*
X93298147Y-35506772D01*
X92991496Y-35379754D01*
X92665958Y-35315000D01*
X92334042Y-35315000D01*
X92008504Y-35379754D01*
X91701853Y-35506772D01*
X91425875Y-35691175D01*
X91191175Y-35925875D01*
X91006772Y-36201853D01*
X90879754Y-36508504D01*
X90815000Y-36834042D01*
X74185000Y-36834042D01*
X74120246Y-36508504D01*
X73993228Y-36201853D01*
X73808825Y-35925875D01*
X73574125Y-35691175D01*
X73298147Y-35506772D01*
X72991496Y-35379754D01*
X72665958Y-35315000D01*
X72334042Y-35315000D01*
X72008504Y-35379754D01*
X71701853Y-35506772D01*
X71425875Y-35691175D01*
X71191175Y-35925875D01*
X71006772Y-36201853D01*
X70879754Y-36508504D01*
X70815000Y-36834042D01*
X65776579Y-36834042D01*
X65780706Y-36829014D01*
X65918599Y-36571034D01*
X66003513Y-36291111D01*
X66032185Y-36000000D01*
X66003513Y-35708889D01*
X65918599Y-35428966D01*
X65780706Y-35170986D01*
X65595134Y-34944866D01*
X65369014Y-34759294D01*
X65183250Y-34660001D01*
X101644471Y-34660001D01*
X103324407Y-34736286D01*
X104975106Y-34962404D01*
X106598517Y-35337198D01*
X108181288Y-35857586D01*
X109710381Y-36519284D01*
X111173202Y-37316840D01*
X112557720Y-38243694D01*
X113852532Y-39292212D01*
X115046989Y-40453771D01*
X116131260Y-41718810D01*
X117096412Y-43076910D01*
X117934500Y-44516890D01*
X118638638Y-46026918D01*
X119203010Y-47594524D01*
X119622989Y-49206845D01*
X119895112Y-50850599D01*
X120017134Y-52512229D01*
X119988056Y-54178110D01*
X119808118Y-55834468D01*
X119478796Y-57467726D01*
X119002808Y-59064399D01*
X118384062Y-60611374D01*
X117627665Y-62095886D01*
X116739826Y-63505751D01*
X115727867Y-64829338D01*
X114600105Y-66055771D01*
X113365839Y-67174935D01*
X112035223Y-68177625D01*
X110619205Y-69055594D01*
X109129429Y-69801618D01*
X107578183Y-70409545D01*
X105978228Y-70874376D01*
X104342707Y-71192289D01*
X102679173Y-71361264D01*
X101650432Y-71390000D01*
X63575550Y-71390000D01*
X61895593Y-71313714D01*
X60244894Y-71087596D01*
X58621486Y-70712803D01*
X57038712Y-70192414D01*
X55509626Y-69530719D01*
X54231830Y-68834042D01*
X70815000Y-68834042D01*
X70815000Y-69165958D01*
X70879754Y-69491496D01*
X71006772Y-69798147D01*
X71191175Y-70074125D01*
X71425875Y-70308825D01*
X71701853Y-70493228D01*
X72008504Y-70620246D01*
X72334042Y-70685000D01*
X72665958Y-70685000D01*
X72991496Y-70620246D01*
X73298147Y-70493228D01*
X73574125Y-70308825D01*
X73808825Y-70074125D01*
X73993228Y-69798147D01*
X74120246Y-69491496D01*
X74185000Y-69165958D01*
X74185000Y-68834042D01*
X90815000Y-68834042D01*
X90815000Y-69165958D01*
X90879754Y-69491496D01*
X91006772Y-69798147D01*
X91191175Y-70074125D01*
X91425875Y-70308825D01*
X91701853Y-70493228D01*
X92008504Y-70620246D01*
X92334042Y-70685000D01*
X92665958Y-70685000D01*
X92991496Y-70620246D01*
X93298147Y-70493228D01*
X93574125Y-70308825D01*
X93808825Y-70074125D01*
X93993228Y-69798147D01*
X94120246Y-69491496D01*
X94185000Y-69165958D01*
X94185000Y-68834042D01*
X94120246Y-68508504D01*
X93993228Y-68201853D01*
X93808825Y-67925875D01*
X93574125Y-67691175D01*
X93298147Y-67506772D01*
X92991496Y-67379754D01*
X92665958Y-67315000D01*
X92334042Y-67315000D01*
X92008504Y-67379754D01*
X91701853Y-67506772D01*
X91425875Y-67691175D01*
X91191175Y-67925875D01*
X91006772Y-68201853D01*
X90879754Y-68508504D01*
X90815000Y-68834042D01*
X74185000Y-68834042D01*
X74120246Y-68508504D01*
X73993228Y-68201853D01*
X73808825Y-67925875D01*
X73574125Y-67691175D01*
X73298147Y-67506772D01*
X72991496Y-67379754D01*
X72665958Y-67315000D01*
X72334042Y-67315000D01*
X72008504Y-67379754D01*
X71701853Y-67506772D01*
X71425875Y-67691175D01*
X71191175Y-67925875D01*
X71006772Y-68201853D01*
X70879754Y-68508504D01*
X70815000Y-68834042D01*
X54231830Y-68834042D01*
X54046806Y-68733164D01*
X52662285Y-67806310D01*
X51367468Y-66757788D01*
X50173006Y-65596224D01*
X49088735Y-64331184D01*
X48123582Y-62973080D01*
X47285500Y-61533110D01*
X46581362Y-60023082D01*
X46016991Y-58455480D01*
X45597010Y-56843152D01*
X45324888Y-55199402D01*
X45202866Y-53537771D01*
X45215149Y-52834042D01*
X45815000Y-52834042D01*
X45815000Y-53165958D01*
X45879754Y-53491496D01*
X46006772Y-53798147D01*
X46191175Y-54074125D01*
X46425875Y-54308825D01*
X46701853Y-54493228D01*
X47008504Y-54620246D01*
X47334042Y-54685000D01*
X47665958Y-54685000D01*
X47991496Y-54620246D01*
X48298147Y-54493228D01*
X48574125Y-54308825D01*
X48808825Y-54074125D01*
X48993228Y-53798147D01*
X49120246Y-53491496D01*
X49185000Y-53165958D01*
X49185000Y-52834042D01*
X115815000Y-52834042D01*
X115815000Y-53165958D01*
X115879754Y-53491496D01*
X116006772Y-53798147D01*
X116191175Y-54074125D01*
X116425875Y-54308825D01*
X116701853Y-54493228D01*
X117008504Y-54620246D01*
X117334042Y-54685000D01*
X117665958Y-54685000D01*
X117991496Y-54620246D01*
X118298147Y-54493228D01*
X118574125Y-54308825D01*
X118808825Y-54074125D01*
X118993228Y-53798147D01*
X119120246Y-53491496D01*
X119185000Y-53165958D01*
X119185000Y-52834042D01*
X119120246Y-52508504D01*
X118993228Y-52201853D01*
X118808825Y-51925875D01*
X118574125Y-51691175D01*
X118298147Y-51506772D01*
X117991496Y-51379754D01*
X117665958Y-51315000D01*
X117334042Y-51315000D01*
X117008504Y-51379754D01*
X116701853Y-51506772D01*
X116425875Y-51691175D01*
X116191175Y-51925875D01*
X116006772Y-52201853D01*
X115879754Y-52508504D01*
X115815000Y-52834042D01*
X49185000Y-52834042D01*
X49120246Y-52508504D01*
X48993228Y-52201853D01*
X48808825Y-51925875D01*
X48574125Y-51691175D01*
X48298147Y-51506772D01*
X47991496Y-51379754D01*
X47665958Y-51315000D01*
X47334042Y-51315000D01*
X47008504Y-51379754D01*
X46701853Y-51506772D01*
X46425875Y-51691175D01*
X46191175Y-51925875D01*
X46006772Y-52201853D01*
X45879754Y-52508504D01*
X45815000Y-52834042D01*
X45215149Y-52834042D01*
X45231944Y-51871890D01*
X45411882Y-50215532D01*
X45741204Y-48582274D01*
X46217192Y-46985601D01*
X46749807Y-45653967D01*
X58695000Y-45653967D01*
X58695000Y-45976033D01*
X58757832Y-46291912D01*
X58881082Y-46589463D01*
X59060013Y-46857252D01*
X59287748Y-47084987D01*
X59555537Y-47263918D01*
X59853088Y-47387168D01*
X60168967Y-47450000D01*
X60491033Y-47450000D01*
X60806912Y-47387168D01*
X61104463Y-47263918D01*
X61372252Y-47084987D01*
X61599987Y-46857252D01*
X61778918Y-46589463D01*
X61902168Y-46291912D01*
X61965000Y-45976033D01*
X61965000Y-45653967D01*
X65195000Y-45653967D01*
X65195000Y-45976033D01*
X65257832Y-46291912D01*
X65381082Y-46589463D01*
X65560013Y-46857252D01*
X65787748Y-47084987D01*
X66055537Y-47263918D01*
X66353088Y-47387168D01*
X66668967Y-47450000D01*
X66991033Y-47450000D01*
X67306912Y-47387168D01*
X67604463Y-47263918D01*
X67872252Y-47084987D01*
X68099987Y-46857252D01*
X68278918Y-46589463D01*
X68402168Y-46291912D01*
X68465000Y-45976033D01*
X68465000Y-45653967D01*
X68445109Y-45553967D01*
X80895000Y-45553967D01*
X80895000Y-45876033D01*
X80957832Y-46191912D01*
X81081082Y-46489463D01*
X81260013Y-46757252D01*
X81487748Y-46984987D01*
X81755537Y-47163918D01*
X82053088Y-47287168D01*
X82368967Y-47350000D01*
X82691033Y-47350000D01*
X83006912Y-47287168D01*
X83304463Y-47163918D01*
X83572252Y-46984987D01*
X83799987Y-46757252D01*
X83978918Y-46489463D01*
X84102168Y-46191912D01*
X84165000Y-45876033D01*
X84165000Y-45553967D01*
X87395000Y-45553967D01*
X87395000Y-45876033D01*
X87457832Y-46191912D01*
X87581082Y-46489463D01*
X87760013Y-46757252D01*
X87987748Y-46984987D01*
X88255537Y-47163918D01*
X88553088Y-47287168D01*
X88868967Y-47350000D01*
X89191033Y-47350000D01*
X89506912Y-47287168D01*
X89804463Y-47163918D01*
X90072252Y-46984987D01*
X90299987Y-46757252D01*
X90478918Y-46489463D01*
X90602168Y-46191912D01*
X90665000Y-45876033D01*
X90665000Y-45653967D01*
X96895000Y-45653967D01*
X96895000Y-45976033D01*
X96957832Y-46291912D01*
X97081082Y-46589463D01*
X97260013Y-46857252D01*
X97487748Y-47084987D01*
X97755537Y-47263918D01*
X98053088Y-47387168D01*
X98368967Y-47450000D01*
X98691033Y-47450000D01*
X99006912Y-47387168D01*
X99304463Y-47263918D01*
X99572252Y-47084987D01*
X99799987Y-46857252D01*
X99978918Y-46589463D01*
X100102168Y-46291912D01*
X100165000Y-45976033D01*
X100165000Y-45653967D01*
X103395000Y-45653967D01*
X103395000Y-45976033D01*
X103457832Y-46291912D01*
X103581082Y-46589463D01*
X103760013Y-46857252D01*
X103987748Y-47084987D01*
X104255537Y-47263918D01*
X104553088Y-47387168D01*
X104868967Y-47450000D01*
X105191033Y-47450000D01*
X105506912Y-47387168D01*
X105804463Y-47263918D01*
X106072252Y-47084987D01*
X106299987Y-46857252D01*
X106478918Y-46589463D01*
X106602168Y-46291912D01*
X106665000Y-45976033D01*
X106665000Y-45653967D01*
X106602168Y-45338088D01*
X106478918Y-45040537D01*
X106299987Y-44772748D01*
X106072252Y-44545013D01*
X105804463Y-44366082D01*
X105506912Y-44242832D01*
X105191033Y-44180000D01*
X104868967Y-44180000D01*
X104553088Y-44242832D01*
X104255537Y-44366082D01*
X103987748Y-44545013D01*
X103760013Y-44772748D01*
X103581082Y-45040537D01*
X103457832Y-45338088D01*
X103395000Y-45653967D01*
X100165000Y-45653967D01*
X100102168Y-45338088D01*
X99978918Y-45040537D01*
X99799987Y-44772748D01*
X99572252Y-44545013D01*
X99304463Y-44366082D01*
X99006912Y-44242832D01*
X98691033Y-44180000D01*
X98368967Y-44180000D01*
X98053088Y-44242832D01*
X97755537Y-44366082D01*
X97487748Y-44545013D01*
X97260013Y-44772748D01*
X97081082Y-45040537D01*
X96957832Y-45338088D01*
X96895000Y-45653967D01*
X90665000Y-45653967D01*
X90665000Y-45553967D01*
X90602168Y-45238088D01*
X90478918Y-44940537D01*
X90299987Y-44672748D01*
X90072252Y-44445013D01*
X89804463Y-44266082D01*
X89506912Y-44142832D01*
X89191033Y-44080000D01*
X88868967Y-44080000D01*
X88553088Y-44142832D01*
X88255537Y-44266082D01*
X87987748Y-44445013D01*
X87760013Y-44672748D01*
X87581082Y-44940537D01*
X87457832Y-45238088D01*
X87395000Y-45553967D01*
X84165000Y-45553967D01*
X84102168Y-45238088D01*
X83978918Y-44940537D01*
X83799987Y-44672748D01*
X83572252Y-44445013D01*
X83304463Y-44266082D01*
X83006912Y-44142832D01*
X82691033Y-44080000D01*
X82368967Y-44080000D01*
X82053088Y-44142832D01*
X81755537Y-44266082D01*
X81487748Y-44445013D01*
X81260013Y-44672748D01*
X81081082Y-44940537D01*
X80957832Y-45238088D01*
X80895000Y-45553967D01*
X68445109Y-45553967D01*
X68402168Y-45338088D01*
X68278918Y-45040537D01*
X68099987Y-44772748D01*
X67872252Y-44545013D01*
X67604463Y-44366082D01*
X67306912Y-44242832D01*
X66991033Y-44180000D01*
X66668967Y-44180000D01*
X66353088Y-44242832D01*
X66055537Y-44366082D01*
X65787748Y-44545013D01*
X65560013Y-44772748D01*
X65381082Y-45040537D01*
X65257832Y-45338088D01*
X65195000Y-45653967D01*
X61965000Y-45653967D01*
X61902168Y-45338088D01*
X61778918Y-45040537D01*
X61599987Y-44772748D01*
X61372252Y-44545013D01*
X61104463Y-44366082D01*
X60806912Y-44242832D01*
X60491033Y-44180000D01*
X60168967Y-44180000D01*
X59853088Y-44242832D01*
X59555537Y-44366082D01*
X59287748Y-44545013D01*
X59060013Y-44772748D01*
X58881082Y-45040537D01*
X58757832Y-45338088D01*
X58695000Y-45653967D01*
X46749807Y-45653967D01*
X46835938Y-45438626D01*
X47592336Y-43954114D01*
X48480168Y-42544256D01*
X49492129Y-41220666D01*
X49553461Y-41153967D01*
X58695000Y-41153967D01*
X58695000Y-41476033D01*
X58757832Y-41791912D01*
X58881082Y-42089463D01*
X59060013Y-42357252D01*
X59287748Y-42584987D01*
X59555537Y-42763918D01*
X59853088Y-42887168D01*
X60168967Y-42950000D01*
X60491033Y-42950000D01*
X60806912Y-42887168D01*
X61104463Y-42763918D01*
X61372252Y-42584987D01*
X61599987Y-42357252D01*
X61778918Y-42089463D01*
X61902168Y-41791912D01*
X61965000Y-41476033D01*
X61965000Y-41153967D01*
X65195000Y-41153967D01*
X65195000Y-41476033D01*
X65257832Y-41791912D01*
X65381082Y-42089463D01*
X65560013Y-42357252D01*
X65787748Y-42584987D01*
X66055537Y-42763918D01*
X66353088Y-42887168D01*
X66668967Y-42950000D01*
X66991033Y-42950000D01*
X67306912Y-42887168D01*
X67604463Y-42763918D01*
X67872252Y-42584987D01*
X68099987Y-42357252D01*
X68278918Y-42089463D01*
X68402168Y-41791912D01*
X68465000Y-41476033D01*
X68465000Y-41153967D01*
X68445109Y-41053967D01*
X80895000Y-41053967D01*
X80895000Y-41376033D01*
X80957832Y-41691912D01*
X81081082Y-41989463D01*
X81260013Y-42257252D01*
X81487748Y-42484987D01*
X81755537Y-42663918D01*
X82053088Y-42787168D01*
X82368967Y-42850000D01*
X82691033Y-42850000D01*
X83006912Y-42787168D01*
X83304463Y-42663918D01*
X83572252Y-42484987D01*
X83799987Y-42257252D01*
X83978918Y-41989463D01*
X84102168Y-41691912D01*
X84165000Y-41376033D01*
X84165000Y-41053967D01*
X87395000Y-41053967D01*
X87395000Y-41376033D01*
X87457832Y-41691912D01*
X87581082Y-41989463D01*
X87760013Y-42257252D01*
X87987748Y-42484987D01*
X88255537Y-42663918D01*
X88553088Y-42787168D01*
X88868967Y-42850000D01*
X89191033Y-42850000D01*
X89506912Y-42787168D01*
X89804463Y-42663918D01*
X90072252Y-42484987D01*
X90299987Y-42257252D01*
X90478918Y-41989463D01*
X90602168Y-41691912D01*
X90665000Y-41376033D01*
X90665000Y-41153967D01*
X96895000Y-41153967D01*
X96895000Y-41476033D01*
X96957832Y-41791912D01*
X97081082Y-42089463D01*
X97260013Y-42357252D01*
X97487748Y-42584987D01*
X97755537Y-42763918D01*
X98053088Y-42887168D01*
X98368967Y-42950000D01*
X98691033Y-42950000D01*
X99006912Y-42887168D01*
X99304463Y-42763918D01*
X99572252Y-42584987D01*
X99799987Y-42357252D01*
X99978918Y-42089463D01*
X100102168Y-41791912D01*
X100165000Y-41476033D01*
X100165000Y-41153967D01*
X103395000Y-41153967D01*
X103395000Y-41476033D01*
X103457832Y-41791912D01*
X103581082Y-42089463D01*
X103760013Y-42357252D01*
X103987748Y-42584987D01*
X104255537Y-42763918D01*
X104553088Y-42887168D01*
X104868967Y-42950000D01*
X105191033Y-42950000D01*
X105506912Y-42887168D01*
X105804463Y-42763918D01*
X106072252Y-42584987D01*
X106299987Y-42357252D01*
X106478918Y-42089463D01*
X106602168Y-41791912D01*
X106665000Y-41476033D01*
X106665000Y-41153967D01*
X106602168Y-40838088D01*
X106478918Y-40540537D01*
X106299987Y-40272748D01*
X106072252Y-40045013D01*
X105804463Y-39866082D01*
X105506912Y-39742832D01*
X105191033Y-39680000D01*
X104868967Y-39680000D01*
X104553088Y-39742832D01*
X104255537Y-39866082D01*
X103987748Y-40045013D01*
X103760013Y-40272748D01*
X103581082Y-40540537D01*
X103457832Y-40838088D01*
X103395000Y-41153967D01*
X100165000Y-41153967D01*
X100102168Y-40838088D01*
X99978918Y-40540537D01*
X99799987Y-40272748D01*
X99572252Y-40045013D01*
X99304463Y-39866082D01*
X99006912Y-39742832D01*
X98691033Y-39680000D01*
X98368967Y-39680000D01*
X98053088Y-39742832D01*
X97755537Y-39866082D01*
X97487748Y-40045013D01*
X97260013Y-40272748D01*
X97081082Y-40540537D01*
X96957832Y-40838088D01*
X96895000Y-41153967D01*
X90665000Y-41153967D01*
X90665000Y-41053967D01*
X90602168Y-40738088D01*
X90478918Y-40440537D01*
X90299987Y-40172748D01*
X90072252Y-39945013D01*
X89804463Y-39766082D01*
X89506912Y-39642832D01*
X89191033Y-39580000D01*
X88868967Y-39580000D01*
X88553088Y-39642832D01*
X88255537Y-39766082D01*
X87987748Y-39945013D01*
X87760013Y-40172748D01*
X87581082Y-40440537D01*
X87457832Y-40738088D01*
X87395000Y-41053967D01*
X84165000Y-41053967D01*
X84102168Y-40738088D01*
X83978918Y-40440537D01*
X83799987Y-40172748D01*
X83572252Y-39945013D01*
X83304463Y-39766082D01*
X83006912Y-39642832D01*
X82691033Y-39580000D01*
X82368967Y-39580000D01*
X82053088Y-39642832D01*
X81755537Y-39766082D01*
X81487748Y-39945013D01*
X81260013Y-40172748D01*
X81081082Y-40440537D01*
X80957832Y-40738088D01*
X80895000Y-41053967D01*
X68445109Y-41053967D01*
X68402168Y-40838088D01*
X68278918Y-40540537D01*
X68099987Y-40272748D01*
X67872252Y-40045013D01*
X67604463Y-39866082D01*
X67306912Y-39742832D01*
X66991033Y-39680000D01*
X66668967Y-39680000D01*
X66353088Y-39742832D01*
X66055537Y-39866082D01*
X65787748Y-40045013D01*
X65560013Y-40272748D01*
X65381082Y-40540537D01*
X65257832Y-40838088D01*
X65195000Y-41153967D01*
X61965000Y-41153967D01*
X61902168Y-40838088D01*
X61778918Y-40540537D01*
X61599987Y-40272748D01*
X61372252Y-40045013D01*
X61104463Y-39866082D01*
X60806912Y-39742832D01*
X60491033Y-39680000D01*
X60168967Y-39680000D01*
X59853088Y-39742832D01*
X59555537Y-39866082D01*
X59287748Y-40045013D01*
X59060013Y-40272748D01*
X58881082Y-40540537D01*
X58757832Y-40838088D01*
X58695000Y-41153967D01*
X49553461Y-41153967D01*
X50619885Y-39994240D01*
X51854161Y-38875065D01*
X53184784Y-37872370D01*
X54600803Y-36994402D01*
X56090571Y-36248382D01*
X57641814Y-35640456D01*
X59241774Y-35175624D01*
X60877293Y-34857711D01*
X62540828Y-34688736D01*
X63569533Y-34660001D01*
X63896750Y-34660001D01*
X63710986Y-34759294D01*
X63710986Y-34759294D01*
G37*
X63710986Y-34759294D02*
X63484866Y-34944866D01*
X63299294Y-35170986D01*
X63161401Y-35428966D01*
X63076487Y-35708889D01*
X63047815Y-36000000D01*
X63076487Y-36291111D01*
X63161401Y-36571034D01*
X63299294Y-36829014D01*
X63484866Y-37055134D01*
X63710986Y-37240706D01*
X63968966Y-37378599D01*
X64248889Y-37463513D01*
X64467050Y-37485000D01*
X64612950Y-37485000D01*
X64831111Y-37463513D01*
X65111034Y-37378599D01*
X65369014Y-37240706D01*
X65595134Y-37055134D01*
X65776579Y-36834042D01*
X70815000Y-36834042D01*
X70815000Y-37165958D01*
X70879754Y-37491496D01*
X71006772Y-37798147D01*
X71191175Y-38074125D01*
X71425875Y-38308825D01*
X71701853Y-38493228D01*
X72008504Y-38620246D01*
X72334042Y-38685000D01*
X72665958Y-38685000D01*
X72991496Y-38620246D01*
X73298147Y-38493228D01*
X73574125Y-38308825D01*
X73808825Y-38074125D01*
X73993228Y-37798147D01*
X74120246Y-37491496D01*
X74185000Y-37165958D01*
X74185000Y-36834042D01*
X90815000Y-36834042D01*
X90815000Y-37165958D01*
X90879754Y-37491496D01*
X91006772Y-37798147D01*
X91191175Y-38074125D01*
X91425875Y-38308825D01*
X91701853Y-38493228D01*
X92008504Y-38620246D01*
X92334042Y-38685000D01*
X92665958Y-38685000D01*
X92991496Y-38620246D01*
X93298147Y-38493228D01*
X93574125Y-38308825D01*
X93808825Y-38074125D01*
X93993228Y-37798147D01*
X94120246Y-37491496D01*
X94185000Y-37165958D01*
X94185000Y-36834042D01*
X94120246Y-36508504D01*
X93993228Y-36201853D01*
X93808825Y-35925875D01*
X93574125Y-35691175D01*
X93298147Y-35506772D01*
X92991496Y-35379754D01*
X92665958Y-35315000D01*
X92334042Y-35315000D01*
X92008504Y-35379754D01*
X91701853Y-35506772D01*
X91425875Y-35691175D01*
X91191175Y-35925875D01*
X91006772Y-36201853D01*
X90879754Y-36508504D01*
X90815000Y-36834042D01*
X74185000Y-36834042D01*
X74120246Y-36508504D01*
X73993228Y-36201853D01*
X73808825Y-35925875D01*
X73574125Y-35691175D01*
X73298147Y-35506772D01*
X72991496Y-35379754D01*
X72665958Y-35315000D01*
X72334042Y-35315000D01*
X72008504Y-35379754D01*
X71701853Y-35506772D01*
X71425875Y-35691175D01*
X71191175Y-35925875D01*
X71006772Y-36201853D01*
X70879754Y-36508504D01*
X70815000Y-36834042D01*
X65776579Y-36834042D01*
X65780706Y-36829014D01*
X65918599Y-36571034D01*
X66003513Y-36291111D01*
X66032185Y-36000000D01*
X66003513Y-35708889D01*
X65918599Y-35428966D01*
X65780706Y-35170986D01*
X65595134Y-34944866D01*
X65369014Y-34759294D01*
X65183250Y-34660001D01*
X101644471Y-34660001D01*
X103324407Y-34736286D01*
X104975106Y-34962404D01*
X106598517Y-35337198D01*
X108181288Y-35857586D01*
X109710381Y-36519284D01*
X111173202Y-37316840D01*
X112557720Y-38243694D01*
X113852532Y-39292212D01*
X115046989Y-40453771D01*
X116131260Y-41718810D01*
X117096412Y-43076910D01*
X117934500Y-44516890D01*
X118638638Y-46026918D01*
X119203010Y-47594524D01*
X119622989Y-49206845D01*
X119895112Y-50850599D01*
X120017134Y-52512229D01*
X119988056Y-54178110D01*
X119808118Y-55834468D01*
X119478796Y-57467726D01*
X119002808Y-59064399D01*
X118384062Y-60611374D01*
X117627665Y-62095886D01*
X116739826Y-63505751D01*
X115727867Y-64829338D01*
X114600105Y-66055771D01*
X113365839Y-67174935D01*
X112035223Y-68177625D01*
X110619205Y-69055594D01*
X109129429Y-69801618D01*
X107578183Y-70409545D01*
X105978228Y-70874376D01*
X104342707Y-71192289D01*
X102679173Y-71361264D01*
X101650432Y-71390000D01*
X63575550Y-71390000D01*
X61895593Y-71313714D01*
X60244894Y-71087596D01*
X58621486Y-70712803D01*
X57038712Y-70192414D01*
X55509626Y-69530719D01*
X54231830Y-68834042D01*
X70815000Y-68834042D01*
X70815000Y-69165958D01*
X70879754Y-69491496D01*
X71006772Y-69798147D01*
X71191175Y-70074125D01*
X71425875Y-70308825D01*
X71701853Y-70493228D01*
X72008504Y-70620246D01*
X72334042Y-70685000D01*
X72665958Y-70685000D01*
X72991496Y-70620246D01*
X73298147Y-70493228D01*
X73574125Y-70308825D01*
X73808825Y-70074125D01*
X73993228Y-69798147D01*
X74120246Y-69491496D01*
X74185000Y-69165958D01*
X74185000Y-68834042D01*
X90815000Y-68834042D01*
X90815000Y-69165958D01*
X90879754Y-69491496D01*
X91006772Y-69798147D01*
X91191175Y-70074125D01*
X91425875Y-70308825D01*
X91701853Y-70493228D01*
X92008504Y-70620246D01*
X92334042Y-70685000D01*
X92665958Y-70685000D01*
X92991496Y-70620246D01*
X93298147Y-70493228D01*
X93574125Y-70308825D01*
X93808825Y-70074125D01*
X93993228Y-69798147D01*
X94120246Y-69491496D01*
X94185000Y-69165958D01*
X94185000Y-68834042D01*
X94120246Y-68508504D01*
X93993228Y-68201853D01*
X93808825Y-67925875D01*
X93574125Y-67691175D01*
X93298147Y-67506772D01*
X92991496Y-67379754D01*
X92665958Y-67315000D01*
X92334042Y-67315000D01*
X92008504Y-67379754D01*
X91701853Y-67506772D01*
X91425875Y-67691175D01*
X91191175Y-67925875D01*
X91006772Y-68201853D01*
X90879754Y-68508504D01*
X90815000Y-68834042D01*
X74185000Y-68834042D01*
X74120246Y-68508504D01*
X73993228Y-68201853D01*
X73808825Y-67925875D01*
X73574125Y-67691175D01*
X73298147Y-67506772D01*
X72991496Y-67379754D01*
X72665958Y-67315000D01*
X72334042Y-67315000D01*
X72008504Y-67379754D01*
X71701853Y-67506772D01*
X71425875Y-67691175D01*
X71191175Y-67925875D01*
X71006772Y-68201853D01*
X70879754Y-68508504D01*
X70815000Y-68834042D01*
X54231830Y-68834042D01*
X54046806Y-68733164D01*
X52662285Y-67806310D01*
X51367468Y-66757788D01*
X50173006Y-65596224D01*
X49088735Y-64331184D01*
X48123582Y-62973080D01*
X47285500Y-61533110D01*
X46581362Y-60023082D01*
X46016991Y-58455480D01*
X45597010Y-56843152D01*
X45324888Y-55199402D01*
X45202866Y-53537771D01*
X45215149Y-52834042D01*
X45815000Y-52834042D01*
X45815000Y-53165958D01*
X45879754Y-53491496D01*
X46006772Y-53798147D01*
X46191175Y-54074125D01*
X46425875Y-54308825D01*
X46701853Y-54493228D01*
X47008504Y-54620246D01*
X47334042Y-54685000D01*
X47665958Y-54685000D01*
X47991496Y-54620246D01*
X48298147Y-54493228D01*
X48574125Y-54308825D01*
X48808825Y-54074125D01*
X48993228Y-53798147D01*
X49120246Y-53491496D01*
X49185000Y-53165958D01*
X49185000Y-52834042D01*
X115815000Y-52834042D01*
X115815000Y-53165958D01*
X115879754Y-53491496D01*
X116006772Y-53798147D01*
X116191175Y-54074125D01*
X116425875Y-54308825D01*
X116701853Y-54493228D01*
X117008504Y-54620246D01*
X117334042Y-54685000D01*
X117665958Y-54685000D01*
X117991496Y-54620246D01*
X118298147Y-54493228D01*
X118574125Y-54308825D01*
X118808825Y-54074125D01*
X118993228Y-53798147D01*
X119120246Y-53491496D01*
X119185000Y-53165958D01*
X119185000Y-52834042D01*
X119120246Y-52508504D01*
X118993228Y-52201853D01*
X118808825Y-51925875D01*
X118574125Y-51691175D01*
X118298147Y-51506772D01*
X117991496Y-51379754D01*
X117665958Y-51315000D01*
X117334042Y-51315000D01*
X117008504Y-51379754D01*
X116701853Y-51506772D01*
X116425875Y-51691175D01*
X116191175Y-51925875D01*
X116006772Y-52201853D01*
X115879754Y-52508504D01*
X115815000Y-52834042D01*
X49185000Y-52834042D01*
X49120246Y-52508504D01*
X48993228Y-52201853D01*
X48808825Y-51925875D01*
X48574125Y-51691175D01*
X48298147Y-51506772D01*
X47991496Y-51379754D01*
X47665958Y-51315000D01*
X47334042Y-51315000D01*
X47008504Y-51379754D01*
X46701853Y-51506772D01*
X46425875Y-51691175D01*
X46191175Y-51925875D01*
X46006772Y-52201853D01*
X45879754Y-52508504D01*
X45815000Y-52834042D01*
X45215149Y-52834042D01*
X45231944Y-51871890D01*
X45411882Y-50215532D01*
X45741204Y-48582274D01*
X46217192Y-46985601D01*
X46749807Y-45653967D01*
X58695000Y-45653967D01*
X58695000Y-45976033D01*
X58757832Y-46291912D01*
X58881082Y-46589463D01*
X59060013Y-46857252D01*
X59287748Y-47084987D01*
X59555537Y-47263918D01*
X59853088Y-47387168D01*
X60168967Y-47450000D01*
X60491033Y-47450000D01*
X60806912Y-47387168D01*
X61104463Y-47263918D01*
X61372252Y-47084987D01*
X61599987Y-46857252D01*
X61778918Y-46589463D01*
X61902168Y-46291912D01*
X61965000Y-45976033D01*
X61965000Y-45653967D01*
X65195000Y-45653967D01*
X65195000Y-45976033D01*
X65257832Y-46291912D01*
X65381082Y-46589463D01*
X65560013Y-46857252D01*
X65787748Y-47084987D01*
X66055537Y-47263918D01*
X66353088Y-47387168D01*
X66668967Y-47450000D01*
X66991033Y-47450000D01*
X67306912Y-47387168D01*
X67604463Y-47263918D01*
X67872252Y-47084987D01*
X68099987Y-46857252D01*
X68278918Y-46589463D01*
X68402168Y-46291912D01*
X68465000Y-45976033D01*
X68465000Y-45653967D01*
X68445109Y-45553967D01*
X80895000Y-45553967D01*
X80895000Y-45876033D01*
X80957832Y-46191912D01*
X81081082Y-46489463D01*
X81260013Y-46757252D01*
X81487748Y-46984987D01*
X81755537Y-47163918D01*
X82053088Y-47287168D01*
X82368967Y-47350000D01*
X82691033Y-47350000D01*
X83006912Y-47287168D01*
X83304463Y-47163918D01*
X83572252Y-46984987D01*
X83799987Y-46757252D01*
X83978918Y-46489463D01*
X84102168Y-46191912D01*
X84165000Y-45876033D01*
X84165000Y-45553967D01*
X87395000Y-45553967D01*
X87395000Y-45876033D01*
X87457832Y-46191912D01*
X87581082Y-46489463D01*
X87760013Y-46757252D01*
X87987748Y-46984987D01*
X88255537Y-47163918D01*
X88553088Y-47287168D01*
X88868967Y-47350000D01*
X89191033Y-47350000D01*
X89506912Y-47287168D01*
X89804463Y-47163918D01*
X90072252Y-46984987D01*
X90299987Y-46757252D01*
X90478918Y-46489463D01*
X90602168Y-46191912D01*
X90665000Y-45876033D01*
X90665000Y-45653967D01*
X96895000Y-45653967D01*
X96895000Y-45976033D01*
X96957832Y-46291912D01*
X97081082Y-46589463D01*
X97260013Y-46857252D01*
X97487748Y-47084987D01*
X97755537Y-47263918D01*
X98053088Y-47387168D01*
X98368967Y-47450000D01*
X98691033Y-47450000D01*
X99006912Y-47387168D01*
X99304463Y-47263918D01*
X99572252Y-47084987D01*
X99799987Y-46857252D01*
X99978918Y-46589463D01*
X100102168Y-46291912D01*
X100165000Y-45976033D01*
X100165000Y-45653967D01*
X103395000Y-45653967D01*
X103395000Y-45976033D01*
X103457832Y-46291912D01*
X103581082Y-46589463D01*
X103760013Y-46857252D01*
X103987748Y-47084987D01*
X104255537Y-47263918D01*
X104553088Y-47387168D01*
X104868967Y-47450000D01*
X105191033Y-47450000D01*
X105506912Y-47387168D01*
X105804463Y-47263918D01*
X106072252Y-47084987D01*
X106299987Y-46857252D01*
X106478918Y-46589463D01*
X106602168Y-46291912D01*
X106665000Y-45976033D01*
X106665000Y-45653967D01*
X106602168Y-45338088D01*
X106478918Y-45040537D01*
X106299987Y-44772748D01*
X106072252Y-44545013D01*
X105804463Y-44366082D01*
X105506912Y-44242832D01*
X105191033Y-44180000D01*
X104868967Y-44180000D01*
X104553088Y-44242832D01*
X104255537Y-44366082D01*
X103987748Y-44545013D01*
X103760013Y-44772748D01*
X103581082Y-45040537D01*
X103457832Y-45338088D01*
X103395000Y-45653967D01*
X100165000Y-45653967D01*
X100102168Y-45338088D01*
X99978918Y-45040537D01*
X99799987Y-44772748D01*
X99572252Y-44545013D01*
X99304463Y-44366082D01*
X99006912Y-44242832D01*
X98691033Y-44180000D01*
X98368967Y-44180000D01*
X98053088Y-44242832D01*
X97755537Y-44366082D01*
X97487748Y-44545013D01*
X97260013Y-44772748D01*
X97081082Y-45040537D01*
X96957832Y-45338088D01*
X96895000Y-45653967D01*
X90665000Y-45653967D01*
X90665000Y-45553967D01*
X90602168Y-45238088D01*
X90478918Y-44940537D01*
X90299987Y-44672748D01*
X90072252Y-44445013D01*
X89804463Y-44266082D01*
X89506912Y-44142832D01*
X89191033Y-44080000D01*
X88868967Y-44080000D01*
X88553088Y-44142832D01*
X88255537Y-44266082D01*
X87987748Y-44445013D01*
X87760013Y-44672748D01*
X87581082Y-44940537D01*
X87457832Y-45238088D01*
X87395000Y-45553967D01*
X84165000Y-45553967D01*
X84102168Y-45238088D01*
X83978918Y-44940537D01*
X83799987Y-44672748D01*
X83572252Y-44445013D01*
X83304463Y-44266082D01*
X83006912Y-44142832D01*
X82691033Y-44080000D01*
X82368967Y-44080000D01*
X82053088Y-44142832D01*
X81755537Y-44266082D01*
X81487748Y-44445013D01*
X81260013Y-44672748D01*
X81081082Y-44940537D01*
X80957832Y-45238088D01*
X80895000Y-45553967D01*
X68445109Y-45553967D01*
X68402168Y-45338088D01*
X68278918Y-45040537D01*
X68099987Y-44772748D01*
X67872252Y-44545013D01*
X67604463Y-44366082D01*
X67306912Y-44242832D01*
X66991033Y-44180000D01*
X66668967Y-44180000D01*
X66353088Y-44242832D01*
X66055537Y-44366082D01*
X65787748Y-44545013D01*
X65560013Y-44772748D01*
X65381082Y-45040537D01*
X65257832Y-45338088D01*
X65195000Y-45653967D01*
X61965000Y-45653967D01*
X61902168Y-45338088D01*
X61778918Y-45040537D01*
X61599987Y-44772748D01*
X61372252Y-44545013D01*
X61104463Y-44366082D01*
X60806912Y-44242832D01*
X60491033Y-44180000D01*
X60168967Y-44180000D01*
X59853088Y-44242832D01*
X59555537Y-44366082D01*
X59287748Y-44545013D01*
X59060013Y-44772748D01*
X58881082Y-45040537D01*
X58757832Y-45338088D01*
X58695000Y-45653967D01*
X46749807Y-45653967D01*
X46835938Y-45438626D01*
X47592336Y-43954114D01*
X48480168Y-42544256D01*
X49492129Y-41220666D01*
X49553461Y-41153967D01*
X58695000Y-41153967D01*
X58695000Y-41476033D01*
X58757832Y-41791912D01*
X58881082Y-42089463D01*
X59060013Y-42357252D01*
X59287748Y-42584987D01*
X59555537Y-42763918D01*
X59853088Y-42887168D01*
X60168967Y-42950000D01*
X60491033Y-42950000D01*
X60806912Y-42887168D01*
X61104463Y-42763918D01*
X61372252Y-42584987D01*
X61599987Y-42357252D01*
X61778918Y-42089463D01*
X61902168Y-41791912D01*
X61965000Y-41476033D01*
X61965000Y-41153967D01*
X65195000Y-41153967D01*
X65195000Y-41476033D01*
X65257832Y-41791912D01*
X65381082Y-42089463D01*
X65560013Y-42357252D01*
X65787748Y-42584987D01*
X66055537Y-42763918D01*
X66353088Y-42887168D01*
X66668967Y-42950000D01*
X66991033Y-42950000D01*
X67306912Y-42887168D01*
X67604463Y-42763918D01*
X67872252Y-42584987D01*
X68099987Y-42357252D01*
X68278918Y-42089463D01*
X68402168Y-41791912D01*
X68465000Y-41476033D01*
X68465000Y-41153967D01*
X68445109Y-41053967D01*
X80895000Y-41053967D01*
X80895000Y-41376033D01*
X80957832Y-41691912D01*
X81081082Y-41989463D01*
X81260013Y-42257252D01*
X81487748Y-42484987D01*
X81755537Y-42663918D01*
X82053088Y-42787168D01*
X82368967Y-42850000D01*
X82691033Y-42850000D01*
X83006912Y-42787168D01*
X83304463Y-42663918D01*
X83572252Y-42484987D01*
X83799987Y-42257252D01*
X83978918Y-41989463D01*
X84102168Y-41691912D01*
X84165000Y-41376033D01*
X84165000Y-41053967D01*
X87395000Y-41053967D01*
X87395000Y-41376033D01*
X87457832Y-41691912D01*
X87581082Y-41989463D01*
X87760013Y-42257252D01*
X87987748Y-42484987D01*
X88255537Y-42663918D01*
X88553088Y-42787168D01*
X88868967Y-42850000D01*
X89191033Y-42850000D01*
X89506912Y-42787168D01*
X89804463Y-42663918D01*
X90072252Y-42484987D01*
X90299987Y-42257252D01*
X90478918Y-41989463D01*
X90602168Y-41691912D01*
X90665000Y-41376033D01*
X90665000Y-41153967D01*
X96895000Y-41153967D01*
X96895000Y-41476033D01*
X96957832Y-41791912D01*
X97081082Y-42089463D01*
X97260013Y-42357252D01*
X97487748Y-42584987D01*
X97755537Y-42763918D01*
X98053088Y-42887168D01*
X98368967Y-42950000D01*
X98691033Y-42950000D01*
X99006912Y-42887168D01*
X99304463Y-42763918D01*
X99572252Y-42584987D01*
X99799987Y-42357252D01*
X99978918Y-42089463D01*
X100102168Y-41791912D01*
X100165000Y-41476033D01*
X100165000Y-41153967D01*
X103395000Y-41153967D01*
X103395000Y-41476033D01*
X103457832Y-41791912D01*
X103581082Y-42089463D01*
X103760013Y-42357252D01*
X103987748Y-42584987D01*
X104255537Y-42763918D01*
X104553088Y-42887168D01*
X104868967Y-42950000D01*
X105191033Y-42950000D01*
X105506912Y-42887168D01*
X105804463Y-42763918D01*
X106072252Y-42584987D01*
X106299987Y-42357252D01*
X106478918Y-42089463D01*
X106602168Y-41791912D01*
X106665000Y-41476033D01*
X106665000Y-41153967D01*
X106602168Y-40838088D01*
X106478918Y-40540537D01*
X106299987Y-40272748D01*
X106072252Y-40045013D01*
X105804463Y-39866082D01*
X105506912Y-39742832D01*
X105191033Y-39680000D01*
X104868967Y-39680000D01*
X104553088Y-39742832D01*
X104255537Y-39866082D01*
X103987748Y-40045013D01*
X103760013Y-40272748D01*
X103581082Y-40540537D01*
X103457832Y-40838088D01*
X103395000Y-41153967D01*
X100165000Y-41153967D01*
X100102168Y-40838088D01*
X99978918Y-40540537D01*
X99799987Y-40272748D01*
X99572252Y-40045013D01*
X99304463Y-39866082D01*
X99006912Y-39742832D01*
X98691033Y-39680000D01*
X98368967Y-39680000D01*
X98053088Y-39742832D01*
X97755537Y-39866082D01*
X97487748Y-40045013D01*
X97260013Y-40272748D01*
X97081082Y-40540537D01*
X96957832Y-40838088D01*
X96895000Y-41153967D01*
X90665000Y-41153967D01*
X90665000Y-41053967D01*
X90602168Y-40738088D01*
X90478918Y-40440537D01*
X90299987Y-40172748D01*
X90072252Y-39945013D01*
X89804463Y-39766082D01*
X89506912Y-39642832D01*
X89191033Y-39580000D01*
X88868967Y-39580000D01*
X88553088Y-39642832D01*
X88255537Y-39766082D01*
X87987748Y-39945013D01*
X87760013Y-40172748D01*
X87581082Y-40440537D01*
X87457832Y-40738088D01*
X87395000Y-41053967D01*
X84165000Y-41053967D01*
X84102168Y-40738088D01*
X83978918Y-40440537D01*
X83799987Y-40172748D01*
X83572252Y-39945013D01*
X83304463Y-39766082D01*
X83006912Y-39642832D01*
X82691033Y-39580000D01*
X82368967Y-39580000D01*
X82053088Y-39642832D01*
X81755537Y-39766082D01*
X81487748Y-39945013D01*
X81260013Y-40172748D01*
X81081082Y-40440537D01*
X80957832Y-40738088D01*
X80895000Y-41053967D01*
X68445109Y-41053967D01*
X68402168Y-40838088D01*
X68278918Y-40540537D01*
X68099987Y-40272748D01*
X67872252Y-40045013D01*
X67604463Y-39866082D01*
X67306912Y-39742832D01*
X66991033Y-39680000D01*
X66668967Y-39680000D01*
X66353088Y-39742832D01*
X66055537Y-39866082D01*
X65787748Y-40045013D01*
X65560013Y-40272748D01*
X65381082Y-40540537D01*
X65257832Y-40838088D01*
X65195000Y-41153967D01*
X61965000Y-41153967D01*
X61902168Y-40838088D01*
X61778918Y-40540537D01*
X61599987Y-40272748D01*
X61372252Y-40045013D01*
X61104463Y-39866082D01*
X60806912Y-39742832D01*
X60491033Y-39680000D01*
X60168967Y-39680000D01*
X59853088Y-39742832D01*
X59555537Y-39866082D01*
X59287748Y-40045013D01*
X59060013Y-40272748D01*
X58881082Y-40540537D01*
X58757832Y-40838088D01*
X58695000Y-41153967D01*
X49553461Y-41153967D01*
X50619885Y-39994240D01*
X51854161Y-38875065D01*
X53184784Y-37872370D01*
X54600803Y-36994402D01*
X56090571Y-36248382D01*
X57641814Y-35640456D01*
X59241774Y-35175624D01*
X60877293Y-34857711D01*
X62540828Y-34688736D01*
X63569533Y-34660001D01*
X63896750Y-34660001D01*
X63710986Y-34759294D01*
M02*
