G04 #@! TF.GenerationSoftware,KiCad,Pcbnew,(5.1.4-0)*
G04 #@! TF.CreationDate,2022-06-22T14:12:09-04:00*
G04 #@! TF.ProjectId,wheeler_lights,77686565-6c65-4725-9f6c-69676874732e,rev?*
G04 #@! TF.SameCoordinates,Original*
G04 #@! TF.FileFunction,Copper,L1,Top*
G04 #@! TF.FilePolarity,Positive*
%FSLAX46Y46*%
G04 Gerber Fmt 4.6, Leading zero omitted, Abs format (unit mm)*
G04 Created by KiCad (PCBNEW (5.1.4-0)) date 2022-06-22 14:12:09*
%MOMM*%
%LPD*%
G04 APERTURE LIST*
%ADD10C,0.100000*%
%ADD11C,1.425000*%
%ADD12C,2.000000*%
%ADD13O,1.700000X1.700000*%
%ADD14R,1.700000X1.700000*%
%ADD15C,0.800000*%
%ADD16C,0.250000*%
%ADD17C,0.254000*%
G04 APERTURE END LIST*
D10*
G36*
X78304504Y-55341204D02*
G01*
X78328773Y-55344804D01*
X78352571Y-55350765D01*
X78375671Y-55359030D01*
X78397849Y-55369520D01*
X78418893Y-55382133D01*
X78438598Y-55396747D01*
X78456777Y-55413223D01*
X78473253Y-55431402D01*
X78487867Y-55451107D01*
X78500480Y-55472151D01*
X78510970Y-55494329D01*
X78519235Y-55517429D01*
X78525196Y-55541227D01*
X78528796Y-55565496D01*
X78530000Y-55590000D01*
X78530000Y-56840000D01*
X78528796Y-56864504D01*
X78525196Y-56888773D01*
X78519235Y-56912571D01*
X78510970Y-56935671D01*
X78500480Y-56957849D01*
X78487867Y-56978893D01*
X78473253Y-56998598D01*
X78456777Y-57016777D01*
X78438598Y-57033253D01*
X78418893Y-57047867D01*
X78397849Y-57060480D01*
X78375671Y-57070970D01*
X78352571Y-57079235D01*
X78328773Y-57085196D01*
X78304504Y-57088796D01*
X78280000Y-57090000D01*
X77355000Y-57090000D01*
X77330496Y-57088796D01*
X77306227Y-57085196D01*
X77282429Y-57079235D01*
X77259329Y-57070970D01*
X77237151Y-57060480D01*
X77216107Y-57047867D01*
X77196402Y-57033253D01*
X77178223Y-57016777D01*
X77161747Y-56998598D01*
X77147133Y-56978893D01*
X77134520Y-56957849D01*
X77124030Y-56935671D01*
X77115765Y-56912571D01*
X77109804Y-56888773D01*
X77106204Y-56864504D01*
X77105000Y-56840000D01*
X77105000Y-55590000D01*
X77106204Y-55565496D01*
X77109804Y-55541227D01*
X77115765Y-55517429D01*
X77124030Y-55494329D01*
X77134520Y-55472151D01*
X77147133Y-55451107D01*
X77161747Y-55431402D01*
X77178223Y-55413223D01*
X77196402Y-55396747D01*
X77216107Y-55382133D01*
X77237151Y-55369520D01*
X77259329Y-55359030D01*
X77282429Y-55350765D01*
X77306227Y-55344804D01*
X77330496Y-55341204D01*
X77355000Y-55340000D01*
X78280000Y-55340000D01*
X78304504Y-55341204D01*
X78304504Y-55341204D01*
G37*
D11*
X77817500Y-56215000D03*
D10*
G36*
X75329504Y-55341204D02*
G01*
X75353773Y-55344804D01*
X75377571Y-55350765D01*
X75400671Y-55359030D01*
X75422849Y-55369520D01*
X75443893Y-55382133D01*
X75463598Y-55396747D01*
X75481777Y-55413223D01*
X75498253Y-55431402D01*
X75512867Y-55451107D01*
X75525480Y-55472151D01*
X75535970Y-55494329D01*
X75544235Y-55517429D01*
X75550196Y-55541227D01*
X75553796Y-55565496D01*
X75555000Y-55590000D01*
X75555000Y-56840000D01*
X75553796Y-56864504D01*
X75550196Y-56888773D01*
X75544235Y-56912571D01*
X75535970Y-56935671D01*
X75525480Y-56957849D01*
X75512867Y-56978893D01*
X75498253Y-56998598D01*
X75481777Y-57016777D01*
X75463598Y-57033253D01*
X75443893Y-57047867D01*
X75422849Y-57060480D01*
X75400671Y-57070970D01*
X75377571Y-57079235D01*
X75353773Y-57085196D01*
X75329504Y-57088796D01*
X75305000Y-57090000D01*
X74380000Y-57090000D01*
X74355496Y-57088796D01*
X74331227Y-57085196D01*
X74307429Y-57079235D01*
X74284329Y-57070970D01*
X74262151Y-57060480D01*
X74241107Y-57047867D01*
X74221402Y-57033253D01*
X74203223Y-57016777D01*
X74186747Y-56998598D01*
X74172133Y-56978893D01*
X74159520Y-56957849D01*
X74149030Y-56935671D01*
X74140765Y-56912571D01*
X74134804Y-56888773D01*
X74131204Y-56864504D01*
X74130000Y-56840000D01*
X74130000Y-55590000D01*
X74131204Y-55565496D01*
X74134804Y-55541227D01*
X74140765Y-55517429D01*
X74149030Y-55494329D01*
X74159520Y-55472151D01*
X74172133Y-55451107D01*
X74186747Y-55431402D01*
X74203223Y-55413223D01*
X74221402Y-55396747D01*
X74241107Y-55382133D01*
X74262151Y-55369520D01*
X74284329Y-55359030D01*
X74307429Y-55350765D01*
X74331227Y-55344804D01*
X74355496Y-55341204D01*
X74380000Y-55340000D01*
X75305000Y-55340000D01*
X75329504Y-55341204D01*
X75329504Y-55341204D01*
G37*
D11*
X74842500Y-56215000D03*
D10*
G36*
X97304504Y-61641204D02*
G01*
X97328773Y-61644804D01*
X97352571Y-61650765D01*
X97375671Y-61659030D01*
X97397849Y-61669520D01*
X97418893Y-61682133D01*
X97438598Y-61696747D01*
X97456777Y-61713223D01*
X97473253Y-61731402D01*
X97487867Y-61751107D01*
X97500480Y-61772151D01*
X97510970Y-61794329D01*
X97519235Y-61817429D01*
X97525196Y-61841227D01*
X97528796Y-61865496D01*
X97530000Y-61890000D01*
X97530000Y-63140000D01*
X97528796Y-63164504D01*
X97525196Y-63188773D01*
X97519235Y-63212571D01*
X97510970Y-63235671D01*
X97500480Y-63257849D01*
X97487867Y-63278893D01*
X97473253Y-63298598D01*
X97456777Y-63316777D01*
X97438598Y-63333253D01*
X97418893Y-63347867D01*
X97397849Y-63360480D01*
X97375671Y-63370970D01*
X97352571Y-63379235D01*
X97328773Y-63385196D01*
X97304504Y-63388796D01*
X97280000Y-63390000D01*
X96355000Y-63390000D01*
X96330496Y-63388796D01*
X96306227Y-63385196D01*
X96282429Y-63379235D01*
X96259329Y-63370970D01*
X96237151Y-63360480D01*
X96216107Y-63347867D01*
X96196402Y-63333253D01*
X96178223Y-63316777D01*
X96161747Y-63298598D01*
X96147133Y-63278893D01*
X96134520Y-63257849D01*
X96124030Y-63235671D01*
X96115765Y-63212571D01*
X96109804Y-63188773D01*
X96106204Y-63164504D01*
X96105000Y-63140000D01*
X96105000Y-61890000D01*
X96106204Y-61865496D01*
X96109804Y-61841227D01*
X96115765Y-61817429D01*
X96124030Y-61794329D01*
X96134520Y-61772151D01*
X96147133Y-61751107D01*
X96161747Y-61731402D01*
X96178223Y-61713223D01*
X96196402Y-61696747D01*
X96216107Y-61682133D01*
X96237151Y-61669520D01*
X96259329Y-61659030D01*
X96282429Y-61650765D01*
X96306227Y-61644804D01*
X96330496Y-61641204D01*
X96355000Y-61640000D01*
X97280000Y-61640000D01*
X97304504Y-61641204D01*
X97304504Y-61641204D01*
G37*
D11*
X96817500Y-62515000D03*
D10*
G36*
X94329504Y-61641204D02*
G01*
X94353773Y-61644804D01*
X94377571Y-61650765D01*
X94400671Y-61659030D01*
X94422849Y-61669520D01*
X94443893Y-61682133D01*
X94463598Y-61696747D01*
X94481777Y-61713223D01*
X94498253Y-61731402D01*
X94512867Y-61751107D01*
X94525480Y-61772151D01*
X94535970Y-61794329D01*
X94544235Y-61817429D01*
X94550196Y-61841227D01*
X94553796Y-61865496D01*
X94555000Y-61890000D01*
X94555000Y-63140000D01*
X94553796Y-63164504D01*
X94550196Y-63188773D01*
X94544235Y-63212571D01*
X94535970Y-63235671D01*
X94525480Y-63257849D01*
X94512867Y-63278893D01*
X94498253Y-63298598D01*
X94481777Y-63316777D01*
X94463598Y-63333253D01*
X94443893Y-63347867D01*
X94422849Y-63360480D01*
X94400671Y-63370970D01*
X94377571Y-63379235D01*
X94353773Y-63385196D01*
X94329504Y-63388796D01*
X94305000Y-63390000D01*
X93380000Y-63390000D01*
X93355496Y-63388796D01*
X93331227Y-63385196D01*
X93307429Y-63379235D01*
X93284329Y-63370970D01*
X93262151Y-63360480D01*
X93241107Y-63347867D01*
X93221402Y-63333253D01*
X93203223Y-63316777D01*
X93186747Y-63298598D01*
X93172133Y-63278893D01*
X93159520Y-63257849D01*
X93149030Y-63235671D01*
X93140765Y-63212571D01*
X93134804Y-63188773D01*
X93131204Y-63164504D01*
X93130000Y-63140000D01*
X93130000Y-61890000D01*
X93131204Y-61865496D01*
X93134804Y-61841227D01*
X93140765Y-61817429D01*
X93149030Y-61794329D01*
X93159520Y-61772151D01*
X93172133Y-61751107D01*
X93186747Y-61731402D01*
X93203223Y-61713223D01*
X93221402Y-61696747D01*
X93241107Y-61682133D01*
X93262151Y-61669520D01*
X93284329Y-61659030D01*
X93307429Y-61650765D01*
X93331227Y-61644804D01*
X93355496Y-61641204D01*
X93380000Y-61640000D01*
X94305000Y-61640000D01*
X94329504Y-61641204D01*
X94329504Y-61641204D01*
G37*
D11*
X93842500Y-62515000D03*
D12*
X66830000Y-41315000D03*
X66830000Y-45815000D03*
X60330000Y-41315000D03*
X60330000Y-45815000D03*
X89030000Y-41215000D03*
X89030000Y-45715000D03*
X82530000Y-41215000D03*
X82530000Y-45715000D03*
X105030000Y-41315000D03*
X105030000Y-45815000D03*
X98530000Y-41315000D03*
X98530000Y-45815000D03*
D10*
G36*
X55629504Y-53691204D02*
G01*
X55653773Y-53694804D01*
X55677571Y-53700765D01*
X55700671Y-53709030D01*
X55722849Y-53719520D01*
X55743893Y-53732133D01*
X55763598Y-53746747D01*
X55781777Y-53763223D01*
X55798253Y-53781402D01*
X55812867Y-53801107D01*
X55825480Y-53822151D01*
X55835970Y-53844329D01*
X55844235Y-53867429D01*
X55850196Y-53891227D01*
X55853796Y-53915496D01*
X55855000Y-53940000D01*
X55855000Y-54865000D01*
X55853796Y-54889504D01*
X55850196Y-54913773D01*
X55844235Y-54937571D01*
X55835970Y-54960671D01*
X55825480Y-54982849D01*
X55812867Y-55003893D01*
X55798253Y-55023598D01*
X55781777Y-55041777D01*
X55763598Y-55058253D01*
X55743893Y-55072867D01*
X55722849Y-55085480D01*
X55700671Y-55095970D01*
X55677571Y-55104235D01*
X55653773Y-55110196D01*
X55629504Y-55113796D01*
X55605000Y-55115000D01*
X53455000Y-55115000D01*
X53430496Y-55113796D01*
X53406227Y-55110196D01*
X53382429Y-55104235D01*
X53359329Y-55095970D01*
X53337151Y-55085480D01*
X53316107Y-55072867D01*
X53296402Y-55058253D01*
X53278223Y-55041777D01*
X53261747Y-55023598D01*
X53247133Y-55003893D01*
X53234520Y-54982849D01*
X53224030Y-54960671D01*
X53215765Y-54937571D01*
X53209804Y-54913773D01*
X53206204Y-54889504D01*
X53205000Y-54865000D01*
X53205000Y-53940000D01*
X53206204Y-53915496D01*
X53209804Y-53891227D01*
X53215765Y-53867429D01*
X53224030Y-53844329D01*
X53234520Y-53822151D01*
X53247133Y-53801107D01*
X53261747Y-53781402D01*
X53278223Y-53763223D01*
X53296402Y-53746747D01*
X53316107Y-53732133D01*
X53337151Y-53719520D01*
X53359329Y-53709030D01*
X53382429Y-53700765D01*
X53406227Y-53694804D01*
X53430496Y-53691204D01*
X53455000Y-53690000D01*
X55605000Y-53690000D01*
X55629504Y-53691204D01*
X55629504Y-53691204D01*
G37*
D11*
X54530000Y-54402500D03*
D10*
G36*
X55629504Y-50716204D02*
G01*
X55653773Y-50719804D01*
X55677571Y-50725765D01*
X55700671Y-50734030D01*
X55722849Y-50744520D01*
X55743893Y-50757133D01*
X55763598Y-50771747D01*
X55781777Y-50788223D01*
X55798253Y-50806402D01*
X55812867Y-50826107D01*
X55825480Y-50847151D01*
X55835970Y-50869329D01*
X55844235Y-50892429D01*
X55850196Y-50916227D01*
X55853796Y-50940496D01*
X55855000Y-50965000D01*
X55855000Y-51890000D01*
X55853796Y-51914504D01*
X55850196Y-51938773D01*
X55844235Y-51962571D01*
X55835970Y-51985671D01*
X55825480Y-52007849D01*
X55812867Y-52028893D01*
X55798253Y-52048598D01*
X55781777Y-52066777D01*
X55763598Y-52083253D01*
X55743893Y-52097867D01*
X55722849Y-52110480D01*
X55700671Y-52120970D01*
X55677571Y-52129235D01*
X55653773Y-52135196D01*
X55629504Y-52138796D01*
X55605000Y-52140000D01*
X53455000Y-52140000D01*
X53430496Y-52138796D01*
X53406227Y-52135196D01*
X53382429Y-52129235D01*
X53359329Y-52120970D01*
X53337151Y-52110480D01*
X53316107Y-52097867D01*
X53296402Y-52083253D01*
X53278223Y-52066777D01*
X53261747Y-52048598D01*
X53247133Y-52028893D01*
X53234520Y-52007849D01*
X53224030Y-51985671D01*
X53215765Y-51962571D01*
X53209804Y-51938773D01*
X53206204Y-51914504D01*
X53205000Y-51890000D01*
X53205000Y-50965000D01*
X53206204Y-50940496D01*
X53209804Y-50916227D01*
X53215765Y-50892429D01*
X53224030Y-50869329D01*
X53234520Y-50847151D01*
X53247133Y-50826107D01*
X53261747Y-50806402D01*
X53278223Y-50788223D01*
X53296402Y-50771747D01*
X53316107Y-50757133D01*
X53337151Y-50744520D01*
X53359329Y-50734030D01*
X53382429Y-50725765D01*
X53406227Y-50719804D01*
X53430496Y-50716204D01*
X53455000Y-50715000D01*
X55605000Y-50715000D01*
X55629504Y-50716204D01*
X55629504Y-50716204D01*
G37*
D11*
X54530000Y-51427500D03*
D10*
G36*
X63329504Y-53691204D02*
G01*
X63353773Y-53694804D01*
X63377571Y-53700765D01*
X63400671Y-53709030D01*
X63422849Y-53719520D01*
X63443893Y-53732133D01*
X63463598Y-53746747D01*
X63481777Y-53763223D01*
X63498253Y-53781402D01*
X63512867Y-53801107D01*
X63525480Y-53822151D01*
X63535970Y-53844329D01*
X63544235Y-53867429D01*
X63550196Y-53891227D01*
X63553796Y-53915496D01*
X63555000Y-53940000D01*
X63555000Y-54865000D01*
X63553796Y-54889504D01*
X63550196Y-54913773D01*
X63544235Y-54937571D01*
X63535970Y-54960671D01*
X63525480Y-54982849D01*
X63512867Y-55003893D01*
X63498253Y-55023598D01*
X63481777Y-55041777D01*
X63463598Y-55058253D01*
X63443893Y-55072867D01*
X63422849Y-55085480D01*
X63400671Y-55095970D01*
X63377571Y-55104235D01*
X63353773Y-55110196D01*
X63329504Y-55113796D01*
X63305000Y-55115000D01*
X61155000Y-55115000D01*
X61130496Y-55113796D01*
X61106227Y-55110196D01*
X61082429Y-55104235D01*
X61059329Y-55095970D01*
X61037151Y-55085480D01*
X61016107Y-55072867D01*
X60996402Y-55058253D01*
X60978223Y-55041777D01*
X60961747Y-55023598D01*
X60947133Y-55003893D01*
X60934520Y-54982849D01*
X60924030Y-54960671D01*
X60915765Y-54937571D01*
X60909804Y-54913773D01*
X60906204Y-54889504D01*
X60905000Y-54865000D01*
X60905000Y-53940000D01*
X60906204Y-53915496D01*
X60909804Y-53891227D01*
X60915765Y-53867429D01*
X60924030Y-53844329D01*
X60934520Y-53822151D01*
X60947133Y-53801107D01*
X60961747Y-53781402D01*
X60978223Y-53763223D01*
X60996402Y-53746747D01*
X61016107Y-53732133D01*
X61037151Y-53719520D01*
X61059329Y-53709030D01*
X61082429Y-53700765D01*
X61106227Y-53694804D01*
X61130496Y-53691204D01*
X61155000Y-53690000D01*
X63305000Y-53690000D01*
X63329504Y-53691204D01*
X63329504Y-53691204D01*
G37*
D11*
X62230000Y-54402500D03*
D10*
G36*
X63329504Y-50716204D02*
G01*
X63353773Y-50719804D01*
X63377571Y-50725765D01*
X63400671Y-50734030D01*
X63422849Y-50744520D01*
X63443893Y-50757133D01*
X63463598Y-50771747D01*
X63481777Y-50788223D01*
X63498253Y-50806402D01*
X63512867Y-50826107D01*
X63525480Y-50847151D01*
X63535970Y-50869329D01*
X63544235Y-50892429D01*
X63550196Y-50916227D01*
X63553796Y-50940496D01*
X63555000Y-50965000D01*
X63555000Y-51890000D01*
X63553796Y-51914504D01*
X63550196Y-51938773D01*
X63544235Y-51962571D01*
X63535970Y-51985671D01*
X63525480Y-52007849D01*
X63512867Y-52028893D01*
X63498253Y-52048598D01*
X63481777Y-52066777D01*
X63463598Y-52083253D01*
X63443893Y-52097867D01*
X63422849Y-52110480D01*
X63400671Y-52120970D01*
X63377571Y-52129235D01*
X63353773Y-52135196D01*
X63329504Y-52138796D01*
X63305000Y-52140000D01*
X61155000Y-52140000D01*
X61130496Y-52138796D01*
X61106227Y-52135196D01*
X61082429Y-52129235D01*
X61059329Y-52120970D01*
X61037151Y-52110480D01*
X61016107Y-52097867D01*
X60996402Y-52083253D01*
X60978223Y-52066777D01*
X60961747Y-52048598D01*
X60947133Y-52028893D01*
X60934520Y-52007849D01*
X60924030Y-51985671D01*
X60915765Y-51962571D01*
X60909804Y-51938773D01*
X60906204Y-51914504D01*
X60905000Y-51890000D01*
X60905000Y-50965000D01*
X60906204Y-50940496D01*
X60909804Y-50916227D01*
X60915765Y-50892429D01*
X60924030Y-50869329D01*
X60934520Y-50847151D01*
X60947133Y-50826107D01*
X60961747Y-50806402D01*
X60978223Y-50788223D01*
X60996402Y-50771747D01*
X61016107Y-50757133D01*
X61037151Y-50744520D01*
X61059329Y-50734030D01*
X61082429Y-50725765D01*
X61106227Y-50719804D01*
X61130496Y-50716204D01*
X61155000Y-50715000D01*
X63305000Y-50715000D01*
X63329504Y-50716204D01*
X63329504Y-50716204D01*
G37*
D11*
X62230000Y-51427500D03*
D10*
G36*
X108029504Y-61591204D02*
G01*
X108053773Y-61594804D01*
X108077571Y-61600765D01*
X108100671Y-61609030D01*
X108122849Y-61619520D01*
X108143893Y-61632133D01*
X108163598Y-61646747D01*
X108181777Y-61663223D01*
X108198253Y-61681402D01*
X108212867Y-61701107D01*
X108225480Y-61722151D01*
X108235970Y-61744329D01*
X108244235Y-61767429D01*
X108250196Y-61791227D01*
X108253796Y-61815496D01*
X108255000Y-61840000D01*
X108255000Y-62765000D01*
X108253796Y-62789504D01*
X108250196Y-62813773D01*
X108244235Y-62837571D01*
X108235970Y-62860671D01*
X108225480Y-62882849D01*
X108212867Y-62903893D01*
X108198253Y-62923598D01*
X108181777Y-62941777D01*
X108163598Y-62958253D01*
X108143893Y-62972867D01*
X108122849Y-62985480D01*
X108100671Y-62995970D01*
X108077571Y-63004235D01*
X108053773Y-63010196D01*
X108029504Y-63013796D01*
X108005000Y-63015000D01*
X105855000Y-63015000D01*
X105830496Y-63013796D01*
X105806227Y-63010196D01*
X105782429Y-63004235D01*
X105759329Y-62995970D01*
X105737151Y-62985480D01*
X105716107Y-62972867D01*
X105696402Y-62958253D01*
X105678223Y-62941777D01*
X105661747Y-62923598D01*
X105647133Y-62903893D01*
X105634520Y-62882849D01*
X105624030Y-62860671D01*
X105615765Y-62837571D01*
X105609804Y-62813773D01*
X105606204Y-62789504D01*
X105605000Y-62765000D01*
X105605000Y-61840000D01*
X105606204Y-61815496D01*
X105609804Y-61791227D01*
X105615765Y-61767429D01*
X105624030Y-61744329D01*
X105634520Y-61722151D01*
X105647133Y-61701107D01*
X105661747Y-61681402D01*
X105678223Y-61663223D01*
X105696402Y-61646747D01*
X105716107Y-61632133D01*
X105737151Y-61619520D01*
X105759329Y-61609030D01*
X105782429Y-61600765D01*
X105806227Y-61594804D01*
X105830496Y-61591204D01*
X105855000Y-61590000D01*
X108005000Y-61590000D01*
X108029504Y-61591204D01*
X108029504Y-61591204D01*
G37*
D11*
X106930000Y-62302500D03*
D10*
G36*
X108029504Y-58616204D02*
G01*
X108053773Y-58619804D01*
X108077571Y-58625765D01*
X108100671Y-58634030D01*
X108122849Y-58644520D01*
X108143893Y-58657133D01*
X108163598Y-58671747D01*
X108181777Y-58688223D01*
X108198253Y-58706402D01*
X108212867Y-58726107D01*
X108225480Y-58747151D01*
X108235970Y-58769329D01*
X108244235Y-58792429D01*
X108250196Y-58816227D01*
X108253796Y-58840496D01*
X108255000Y-58865000D01*
X108255000Y-59790000D01*
X108253796Y-59814504D01*
X108250196Y-59838773D01*
X108244235Y-59862571D01*
X108235970Y-59885671D01*
X108225480Y-59907849D01*
X108212867Y-59928893D01*
X108198253Y-59948598D01*
X108181777Y-59966777D01*
X108163598Y-59983253D01*
X108143893Y-59997867D01*
X108122849Y-60010480D01*
X108100671Y-60020970D01*
X108077571Y-60029235D01*
X108053773Y-60035196D01*
X108029504Y-60038796D01*
X108005000Y-60040000D01*
X105855000Y-60040000D01*
X105830496Y-60038796D01*
X105806227Y-60035196D01*
X105782429Y-60029235D01*
X105759329Y-60020970D01*
X105737151Y-60010480D01*
X105716107Y-59997867D01*
X105696402Y-59983253D01*
X105678223Y-59966777D01*
X105661747Y-59948598D01*
X105647133Y-59928893D01*
X105634520Y-59907849D01*
X105624030Y-59885671D01*
X105615765Y-59862571D01*
X105609804Y-59838773D01*
X105606204Y-59814504D01*
X105605000Y-59790000D01*
X105605000Y-58865000D01*
X105606204Y-58840496D01*
X105609804Y-58816227D01*
X105615765Y-58792429D01*
X105624030Y-58769329D01*
X105634520Y-58747151D01*
X105647133Y-58726107D01*
X105661747Y-58706402D01*
X105678223Y-58688223D01*
X105696402Y-58671747D01*
X105716107Y-58657133D01*
X105737151Y-58644520D01*
X105759329Y-58634030D01*
X105782429Y-58625765D01*
X105806227Y-58619804D01*
X105830496Y-58616204D01*
X105855000Y-58615000D01*
X108005000Y-58615000D01*
X108029504Y-58616204D01*
X108029504Y-58616204D01*
G37*
D11*
X106930000Y-59327500D03*
D10*
G36*
X109829504Y-54578704D02*
G01*
X109853773Y-54582304D01*
X109877571Y-54588265D01*
X109900671Y-54596530D01*
X109922849Y-54607020D01*
X109943893Y-54619633D01*
X109963598Y-54634247D01*
X109981777Y-54650723D01*
X109998253Y-54668902D01*
X110012867Y-54688607D01*
X110025480Y-54709651D01*
X110035970Y-54731829D01*
X110044235Y-54754929D01*
X110050196Y-54778727D01*
X110053796Y-54802996D01*
X110055000Y-54827500D01*
X110055000Y-55752500D01*
X110053796Y-55777004D01*
X110050196Y-55801273D01*
X110044235Y-55825071D01*
X110035970Y-55848171D01*
X110025480Y-55870349D01*
X110012867Y-55891393D01*
X109998253Y-55911098D01*
X109981777Y-55929277D01*
X109963598Y-55945753D01*
X109943893Y-55960367D01*
X109922849Y-55972980D01*
X109900671Y-55983470D01*
X109877571Y-55991735D01*
X109853773Y-55997696D01*
X109829504Y-56001296D01*
X109805000Y-56002500D01*
X107655000Y-56002500D01*
X107630496Y-56001296D01*
X107606227Y-55997696D01*
X107582429Y-55991735D01*
X107559329Y-55983470D01*
X107537151Y-55972980D01*
X107516107Y-55960367D01*
X107496402Y-55945753D01*
X107478223Y-55929277D01*
X107461747Y-55911098D01*
X107447133Y-55891393D01*
X107434520Y-55870349D01*
X107424030Y-55848171D01*
X107415765Y-55825071D01*
X107409804Y-55801273D01*
X107406204Y-55777004D01*
X107405000Y-55752500D01*
X107405000Y-54827500D01*
X107406204Y-54802996D01*
X107409804Y-54778727D01*
X107415765Y-54754929D01*
X107424030Y-54731829D01*
X107434520Y-54709651D01*
X107447133Y-54688607D01*
X107461747Y-54668902D01*
X107478223Y-54650723D01*
X107496402Y-54634247D01*
X107516107Y-54619633D01*
X107537151Y-54607020D01*
X107559329Y-54596530D01*
X107582429Y-54588265D01*
X107606227Y-54582304D01*
X107630496Y-54578704D01*
X107655000Y-54577500D01*
X109805000Y-54577500D01*
X109829504Y-54578704D01*
X109829504Y-54578704D01*
G37*
D11*
X108730000Y-55290000D03*
D10*
G36*
X109829504Y-51603704D02*
G01*
X109853773Y-51607304D01*
X109877571Y-51613265D01*
X109900671Y-51621530D01*
X109922849Y-51632020D01*
X109943893Y-51644633D01*
X109963598Y-51659247D01*
X109981777Y-51675723D01*
X109998253Y-51693902D01*
X110012867Y-51713607D01*
X110025480Y-51734651D01*
X110035970Y-51756829D01*
X110044235Y-51779929D01*
X110050196Y-51803727D01*
X110053796Y-51827996D01*
X110055000Y-51852500D01*
X110055000Y-52777500D01*
X110053796Y-52802004D01*
X110050196Y-52826273D01*
X110044235Y-52850071D01*
X110035970Y-52873171D01*
X110025480Y-52895349D01*
X110012867Y-52916393D01*
X109998253Y-52936098D01*
X109981777Y-52954277D01*
X109963598Y-52970753D01*
X109943893Y-52985367D01*
X109922849Y-52997980D01*
X109900671Y-53008470D01*
X109877571Y-53016735D01*
X109853773Y-53022696D01*
X109829504Y-53026296D01*
X109805000Y-53027500D01*
X107655000Y-53027500D01*
X107630496Y-53026296D01*
X107606227Y-53022696D01*
X107582429Y-53016735D01*
X107559329Y-53008470D01*
X107537151Y-52997980D01*
X107516107Y-52985367D01*
X107496402Y-52970753D01*
X107478223Y-52954277D01*
X107461747Y-52936098D01*
X107447133Y-52916393D01*
X107434520Y-52895349D01*
X107424030Y-52873171D01*
X107415765Y-52850071D01*
X107409804Y-52826273D01*
X107406204Y-52802004D01*
X107405000Y-52777500D01*
X107405000Y-51852500D01*
X107406204Y-51827996D01*
X107409804Y-51803727D01*
X107415765Y-51779929D01*
X107424030Y-51756829D01*
X107434520Y-51734651D01*
X107447133Y-51713607D01*
X107461747Y-51693902D01*
X107478223Y-51675723D01*
X107496402Y-51659247D01*
X107516107Y-51644633D01*
X107537151Y-51632020D01*
X107559329Y-51621530D01*
X107582429Y-51613265D01*
X107606227Y-51607304D01*
X107630496Y-51603704D01*
X107655000Y-51602500D01*
X109805000Y-51602500D01*
X109829504Y-51603704D01*
X109829504Y-51603704D01*
G37*
D11*
X108730000Y-52315000D03*
D10*
G36*
X65604504Y-61641204D02*
G01*
X65628773Y-61644804D01*
X65652571Y-61650765D01*
X65675671Y-61659030D01*
X65697849Y-61669520D01*
X65718893Y-61682133D01*
X65738598Y-61696747D01*
X65756777Y-61713223D01*
X65773253Y-61731402D01*
X65787867Y-61751107D01*
X65800480Y-61772151D01*
X65810970Y-61794329D01*
X65819235Y-61817429D01*
X65825196Y-61841227D01*
X65828796Y-61865496D01*
X65830000Y-61890000D01*
X65830000Y-63140000D01*
X65828796Y-63164504D01*
X65825196Y-63188773D01*
X65819235Y-63212571D01*
X65810970Y-63235671D01*
X65800480Y-63257849D01*
X65787867Y-63278893D01*
X65773253Y-63298598D01*
X65756777Y-63316777D01*
X65738598Y-63333253D01*
X65718893Y-63347867D01*
X65697849Y-63360480D01*
X65675671Y-63370970D01*
X65652571Y-63379235D01*
X65628773Y-63385196D01*
X65604504Y-63388796D01*
X65580000Y-63390000D01*
X64655000Y-63390000D01*
X64630496Y-63388796D01*
X64606227Y-63385196D01*
X64582429Y-63379235D01*
X64559329Y-63370970D01*
X64537151Y-63360480D01*
X64516107Y-63347867D01*
X64496402Y-63333253D01*
X64478223Y-63316777D01*
X64461747Y-63298598D01*
X64447133Y-63278893D01*
X64434520Y-63257849D01*
X64424030Y-63235671D01*
X64415765Y-63212571D01*
X64409804Y-63188773D01*
X64406204Y-63164504D01*
X64405000Y-63140000D01*
X64405000Y-61890000D01*
X64406204Y-61865496D01*
X64409804Y-61841227D01*
X64415765Y-61817429D01*
X64424030Y-61794329D01*
X64434520Y-61772151D01*
X64447133Y-61751107D01*
X64461747Y-61731402D01*
X64478223Y-61713223D01*
X64496402Y-61696747D01*
X64516107Y-61682133D01*
X64537151Y-61669520D01*
X64559329Y-61659030D01*
X64582429Y-61650765D01*
X64606227Y-61644804D01*
X64630496Y-61641204D01*
X64655000Y-61640000D01*
X65580000Y-61640000D01*
X65604504Y-61641204D01*
X65604504Y-61641204D01*
G37*
D11*
X65117500Y-62515000D03*
D10*
G36*
X62629504Y-61641204D02*
G01*
X62653773Y-61644804D01*
X62677571Y-61650765D01*
X62700671Y-61659030D01*
X62722849Y-61669520D01*
X62743893Y-61682133D01*
X62763598Y-61696747D01*
X62781777Y-61713223D01*
X62798253Y-61731402D01*
X62812867Y-61751107D01*
X62825480Y-61772151D01*
X62835970Y-61794329D01*
X62844235Y-61817429D01*
X62850196Y-61841227D01*
X62853796Y-61865496D01*
X62855000Y-61890000D01*
X62855000Y-63140000D01*
X62853796Y-63164504D01*
X62850196Y-63188773D01*
X62844235Y-63212571D01*
X62835970Y-63235671D01*
X62825480Y-63257849D01*
X62812867Y-63278893D01*
X62798253Y-63298598D01*
X62781777Y-63316777D01*
X62763598Y-63333253D01*
X62743893Y-63347867D01*
X62722849Y-63360480D01*
X62700671Y-63370970D01*
X62677571Y-63379235D01*
X62653773Y-63385196D01*
X62629504Y-63388796D01*
X62605000Y-63390000D01*
X61680000Y-63390000D01*
X61655496Y-63388796D01*
X61631227Y-63385196D01*
X61607429Y-63379235D01*
X61584329Y-63370970D01*
X61562151Y-63360480D01*
X61541107Y-63347867D01*
X61521402Y-63333253D01*
X61503223Y-63316777D01*
X61486747Y-63298598D01*
X61472133Y-63278893D01*
X61459520Y-63257849D01*
X61449030Y-63235671D01*
X61440765Y-63212571D01*
X61434804Y-63188773D01*
X61431204Y-63164504D01*
X61430000Y-63140000D01*
X61430000Y-61890000D01*
X61431204Y-61865496D01*
X61434804Y-61841227D01*
X61440765Y-61817429D01*
X61449030Y-61794329D01*
X61459520Y-61772151D01*
X61472133Y-61751107D01*
X61486747Y-61731402D01*
X61503223Y-61713223D01*
X61521402Y-61696747D01*
X61541107Y-61682133D01*
X61562151Y-61669520D01*
X61584329Y-61659030D01*
X61607429Y-61650765D01*
X61631227Y-61644804D01*
X61655496Y-61641204D01*
X61680000Y-61640000D01*
X62605000Y-61640000D01*
X62629504Y-61641204D01*
X62629504Y-61641204D01*
G37*
D11*
X62142500Y-62515000D03*
D10*
G36*
X97392004Y-55291204D02*
G01*
X97416273Y-55294804D01*
X97440071Y-55300765D01*
X97463171Y-55309030D01*
X97485349Y-55319520D01*
X97506393Y-55332133D01*
X97526098Y-55346747D01*
X97544277Y-55363223D01*
X97560753Y-55381402D01*
X97575367Y-55401107D01*
X97587980Y-55422151D01*
X97598470Y-55444329D01*
X97606735Y-55467429D01*
X97612696Y-55491227D01*
X97616296Y-55515496D01*
X97617500Y-55540000D01*
X97617500Y-56790000D01*
X97616296Y-56814504D01*
X97612696Y-56838773D01*
X97606735Y-56862571D01*
X97598470Y-56885671D01*
X97587980Y-56907849D01*
X97575367Y-56928893D01*
X97560753Y-56948598D01*
X97544277Y-56966777D01*
X97526098Y-56983253D01*
X97506393Y-56997867D01*
X97485349Y-57010480D01*
X97463171Y-57020970D01*
X97440071Y-57029235D01*
X97416273Y-57035196D01*
X97392004Y-57038796D01*
X97367500Y-57040000D01*
X96442500Y-57040000D01*
X96417996Y-57038796D01*
X96393727Y-57035196D01*
X96369929Y-57029235D01*
X96346829Y-57020970D01*
X96324651Y-57010480D01*
X96303607Y-56997867D01*
X96283902Y-56983253D01*
X96265723Y-56966777D01*
X96249247Y-56948598D01*
X96234633Y-56928893D01*
X96222020Y-56907849D01*
X96211530Y-56885671D01*
X96203265Y-56862571D01*
X96197304Y-56838773D01*
X96193704Y-56814504D01*
X96192500Y-56790000D01*
X96192500Y-55540000D01*
X96193704Y-55515496D01*
X96197304Y-55491227D01*
X96203265Y-55467429D01*
X96211530Y-55444329D01*
X96222020Y-55422151D01*
X96234633Y-55401107D01*
X96249247Y-55381402D01*
X96265723Y-55363223D01*
X96283902Y-55346747D01*
X96303607Y-55332133D01*
X96324651Y-55319520D01*
X96346829Y-55309030D01*
X96369929Y-55300765D01*
X96393727Y-55294804D01*
X96417996Y-55291204D01*
X96442500Y-55290000D01*
X97367500Y-55290000D01*
X97392004Y-55291204D01*
X97392004Y-55291204D01*
G37*
D11*
X96905000Y-56165000D03*
D10*
G36*
X94417004Y-55291204D02*
G01*
X94441273Y-55294804D01*
X94465071Y-55300765D01*
X94488171Y-55309030D01*
X94510349Y-55319520D01*
X94531393Y-55332133D01*
X94551098Y-55346747D01*
X94569277Y-55363223D01*
X94585753Y-55381402D01*
X94600367Y-55401107D01*
X94612980Y-55422151D01*
X94623470Y-55444329D01*
X94631735Y-55467429D01*
X94637696Y-55491227D01*
X94641296Y-55515496D01*
X94642500Y-55540000D01*
X94642500Y-56790000D01*
X94641296Y-56814504D01*
X94637696Y-56838773D01*
X94631735Y-56862571D01*
X94623470Y-56885671D01*
X94612980Y-56907849D01*
X94600367Y-56928893D01*
X94585753Y-56948598D01*
X94569277Y-56966777D01*
X94551098Y-56983253D01*
X94531393Y-56997867D01*
X94510349Y-57010480D01*
X94488171Y-57020970D01*
X94465071Y-57029235D01*
X94441273Y-57035196D01*
X94417004Y-57038796D01*
X94392500Y-57040000D01*
X93467500Y-57040000D01*
X93442996Y-57038796D01*
X93418727Y-57035196D01*
X93394929Y-57029235D01*
X93371829Y-57020970D01*
X93349651Y-57010480D01*
X93328607Y-56997867D01*
X93308902Y-56983253D01*
X93290723Y-56966777D01*
X93274247Y-56948598D01*
X93259633Y-56928893D01*
X93247020Y-56907849D01*
X93236530Y-56885671D01*
X93228265Y-56862571D01*
X93222304Y-56838773D01*
X93218704Y-56814504D01*
X93217500Y-56790000D01*
X93217500Y-55540000D01*
X93218704Y-55515496D01*
X93222304Y-55491227D01*
X93228265Y-55467429D01*
X93236530Y-55444329D01*
X93247020Y-55422151D01*
X93259633Y-55401107D01*
X93274247Y-55381402D01*
X93290723Y-55363223D01*
X93308902Y-55346747D01*
X93328607Y-55332133D01*
X93349651Y-55319520D01*
X93371829Y-55309030D01*
X93394929Y-55300765D01*
X93418727Y-55294804D01*
X93442996Y-55291204D01*
X93467500Y-55290000D01*
X94392500Y-55290000D01*
X94417004Y-55291204D01*
X94417004Y-55291204D01*
G37*
D11*
X93930000Y-56165000D03*
D13*
X64540000Y-36000000D03*
D14*
X62000000Y-36000000D03*
D15*
X59730000Y-62215000D03*
X72530000Y-56215000D03*
X93030000Y-59315000D03*
D16*
X61330000Y-62515000D02*
X61030000Y-62215000D01*
X62142500Y-62515000D02*
X61330000Y-62515000D01*
X61030000Y-62215000D02*
X59730000Y-62215000D01*
X74842500Y-56215000D02*
X72530000Y-56215000D01*
X93158653Y-56936347D02*
X93158653Y-59186347D01*
X93930000Y-56165000D02*
X93158653Y-56936347D01*
X93158653Y-59186347D02*
X93030000Y-59315000D01*
X93842500Y-60127500D02*
X93030000Y-59315000D01*
X93842500Y-62515000D02*
X93842500Y-60127500D01*
X60330000Y-49527500D02*
X62230000Y-51427500D01*
X60330000Y-45815000D02*
X60330000Y-49527500D01*
X60805000Y-51427500D02*
X54530000Y-51427500D01*
X62230000Y-51427500D02*
X60805000Y-51427500D01*
X107946790Y-51531790D02*
X100801790Y-51531790D01*
X108730000Y-52315000D02*
X107946790Y-51531790D01*
X100801790Y-51531790D02*
X98485000Y-49215000D01*
X98530000Y-49170000D02*
X98530000Y-45815000D01*
X98485000Y-49215000D02*
X98530000Y-49170000D01*
X62230000Y-54402500D02*
X71642500Y-54402500D01*
X71642500Y-54402500D02*
X72430000Y-53615000D01*
X75217500Y-53615000D02*
X77817500Y-56215000D01*
X72430000Y-53615000D02*
X75217500Y-53615000D01*
X54530000Y-54402500D02*
X57342500Y-57215000D01*
X57342500Y-57215000D02*
X62430000Y-57215000D01*
X65117500Y-59902500D02*
X65117500Y-62515000D01*
X62430000Y-57215000D02*
X65117500Y-59902500D01*
X97780000Y-55290000D02*
X96905000Y-56165000D01*
X108730000Y-55290000D02*
X97780000Y-55290000D01*
X97588847Y-61743653D02*
X96817500Y-62515000D01*
X97813210Y-61519290D02*
X97588847Y-61743653D01*
X106146790Y-61519290D02*
X97813210Y-61519290D01*
X106930000Y-62302500D02*
X106146790Y-61519290D01*
X110042500Y-59327500D02*
X106930000Y-59327500D01*
X110130000Y-59415000D02*
X110042500Y-59327500D01*
X110130000Y-63915000D02*
X110130000Y-61115000D01*
X108430000Y-65615000D02*
X110130000Y-63915000D01*
X110130000Y-61453190D02*
X110130000Y-61115000D01*
X90830000Y-65615000D02*
X108430000Y-65615000D01*
X82530000Y-57315000D02*
X90830000Y-65615000D01*
X110130000Y-61115000D02*
X110130000Y-59415000D01*
X82530000Y-45415000D02*
X82530000Y-57315000D01*
D17*
G36*
X103324407Y-34736286D02*
G01*
X104975106Y-34962404D01*
X106598517Y-35337198D01*
X108181288Y-35857586D01*
X109710381Y-36519284D01*
X111173202Y-37316840D01*
X112557720Y-38243694D01*
X113852532Y-39292212D01*
X115046989Y-40453771D01*
X116131260Y-41718810D01*
X117096412Y-43076910D01*
X117934500Y-44516890D01*
X118638638Y-46026918D01*
X119203010Y-47594524D01*
X119622989Y-49206845D01*
X119895112Y-50850599D01*
X120017134Y-52512229D01*
X119988056Y-54178110D01*
X119808118Y-55834468D01*
X119478796Y-57467726D01*
X119002808Y-59064399D01*
X118384062Y-60611374D01*
X117627665Y-62095886D01*
X116739826Y-63505751D01*
X115727867Y-64829338D01*
X114600105Y-66055771D01*
X113365839Y-67174935D01*
X112035223Y-68177625D01*
X110619205Y-69055594D01*
X109129429Y-69801618D01*
X107578183Y-70409545D01*
X105978228Y-70874376D01*
X104342707Y-71192289D01*
X102679173Y-71361264D01*
X101650432Y-71390000D01*
X63575550Y-71390000D01*
X61895593Y-71313714D01*
X60244894Y-71087596D01*
X58621486Y-70712803D01*
X57038712Y-70192414D01*
X55509626Y-69530719D01*
X54231830Y-68834042D01*
X70815000Y-68834042D01*
X70815000Y-69165958D01*
X70879754Y-69491496D01*
X71006772Y-69798147D01*
X71191175Y-70074125D01*
X71425875Y-70308825D01*
X71701853Y-70493228D01*
X72008504Y-70620246D01*
X72334042Y-70685000D01*
X72665958Y-70685000D01*
X72991496Y-70620246D01*
X73298147Y-70493228D01*
X73574125Y-70308825D01*
X73808825Y-70074125D01*
X73993228Y-69798147D01*
X74120246Y-69491496D01*
X74185000Y-69165958D01*
X74185000Y-68834042D01*
X90815000Y-68834042D01*
X90815000Y-69165958D01*
X90879754Y-69491496D01*
X91006772Y-69798147D01*
X91191175Y-70074125D01*
X91425875Y-70308825D01*
X91701853Y-70493228D01*
X92008504Y-70620246D01*
X92334042Y-70685000D01*
X92665958Y-70685000D01*
X92991496Y-70620246D01*
X93298147Y-70493228D01*
X93574125Y-70308825D01*
X93808825Y-70074125D01*
X93993228Y-69798147D01*
X94120246Y-69491496D01*
X94185000Y-69165958D01*
X94185000Y-68834042D01*
X94120246Y-68508504D01*
X93993228Y-68201853D01*
X93808825Y-67925875D01*
X93574125Y-67691175D01*
X93298147Y-67506772D01*
X92991496Y-67379754D01*
X92665958Y-67315000D01*
X92334042Y-67315000D01*
X92008504Y-67379754D01*
X91701853Y-67506772D01*
X91425875Y-67691175D01*
X91191175Y-67925875D01*
X91006772Y-68201853D01*
X90879754Y-68508504D01*
X90815000Y-68834042D01*
X74185000Y-68834042D01*
X74120246Y-68508504D01*
X73993228Y-68201853D01*
X73808825Y-67925875D01*
X73574125Y-67691175D01*
X73298147Y-67506772D01*
X72991496Y-67379754D01*
X72665958Y-67315000D01*
X72334042Y-67315000D01*
X72008504Y-67379754D01*
X71701853Y-67506772D01*
X71425875Y-67691175D01*
X71191175Y-67925875D01*
X71006772Y-68201853D01*
X70879754Y-68508504D01*
X70815000Y-68834042D01*
X54231830Y-68834042D01*
X54046806Y-68733164D01*
X52662285Y-67806310D01*
X51367468Y-66757788D01*
X50173006Y-65596224D01*
X49088735Y-64331184D01*
X48123582Y-62973080D01*
X47623040Y-62113061D01*
X58695000Y-62113061D01*
X58695000Y-62316939D01*
X58734774Y-62516898D01*
X58812795Y-62705256D01*
X58926063Y-62874774D01*
X59070226Y-63018937D01*
X59239744Y-63132205D01*
X59428102Y-63210226D01*
X59628061Y-63250000D01*
X59831939Y-63250000D01*
X60031898Y-63210226D01*
X60220256Y-63132205D01*
X60389774Y-63018937D01*
X60433711Y-62975000D01*
X60715199Y-62975000D01*
X60766196Y-63025997D01*
X60789999Y-63055001D01*
X60791928Y-63056584D01*
X60791928Y-63140000D01*
X60808992Y-63313254D01*
X60859528Y-63479850D01*
X60941595Y-63633386D01*
X61052038Y-63767962D01*
X61186614Y-63878405D01*
X61340150Y-63960472D01*
X61506746Y-64011008D01*
X61680000Y-64028072D01*
X62605000Y-64028072D01*
X62778254Y-64011008D01*
X62944850Y-63960472D01*
X63098386Y-63878405D01*
X63232962Y-63767962D01*
X63343405Y-63633386D01*
X63425472Y-63479850D01*
X63476008Y-63313254D01*
X63493072Y-63140000D01*
X63493072Y-61890000D01*
X63476008Y-61716746D01*
X63425472Y-61550150D01*
X63343405Y-61396614D01*
X63232962Y-61262038D01*
X63098386Y-61151595D01*
X62944850Y-61069528D01*
X62778254Y-61018992D01*
X62605000Y-61001928D01*
X61680000Y-61001928D01*
X61506746Y-61018992D01*
X61340150Y-61069528D01*
X61186614Y-61151595D01*
X61052038Y-61262038D01*
X60941595Y-61396614D01*
X60910387Y-61455000D01*
X60433711Y-61455000D01*
X60389774Y-61411063D01*
X60220256Y-61297795D01*
X60031898Y-61219774D01*
X59831939Y-61180000D01*
X59628061Y-61180000D01*
X59428102Y-61219774D01*
X59239744Y-61297795D01*
X59070226Y-61411063D01*
X58926063Y-61555226D01*
X58812795Y-61724744D01*
X58734774Y-61913102D01*
X58695000Y-62113061D01*
X47623040Y-62113061D01*
X47285500Y-61533110D01*
X46581362Y-60023082D01*
X46016991Y-58455480D01*
X45597010Y-56843152D01*
X45324888Y-55199402D01*
X45202866Y-53537771D01*
X45215149Y-52834042D01*
X45815000Y-52834042D01*
X45815000Y-53165958D01*
X45879754Y-53491496D01*
X46006772Y-53798147D01*
X46191175Y-54074125D01*
X46425875Y-54308825D01*
X46701853Y-54493228D01*
X47008504Y-54620246D01*
X47334042Y-54685000D01*
X47665958Y-54685000D01*
X47991496Y-54620246D01*
X48298147Y-54493228D01*
X48574125Y-54308825D01*
X48808825Y-54074125D01*
X48898444Y-53940000D01*
X52566928Y-53940000D01*
X52566928Y-54865000D01*
X52583992Y-55038254D01*
X52634528Y-55204850D01*
X52716595Y-55358386D01*
X52827038Y-55492962D01*
X52961614Y-55603405D01*
X53115150Y-55685472D01*
X53281746Y-55736008D01*
X53455000Y-55753072D01*
X54805771Y-55753072D01*
X56778700Y-57726002D01*
X56802499Y-57755001D01*
X56918224Y-57849974D01*
X57050253Y-57920546D01*
X57193514Y-57964003D01*
X57305167Y-57975000D01*
X57305175Y-57975000D01*
X57342500Y-57978676D01*
X57379825Y-57975000D01*
X62115199Y-57975000D01*
X64357500Y-60217302D01*
X64357500Y-61056681D01*
X64315150Y-61069528D01*
X64161614Y-61151595D01*
X64027038Y-61262038D01*
X63916595Y-61396614D01*
X63834528Y-61550150D01*
X63783992Y-61716746D01*
X63766928Y-61890000D01*
X63766928Y-63140000D01*
X63783992Y-63313254D01*
X63834528Y-63479850D01*
X63916595Y-63633386D01*
X64027038Y-63767962D01*
X64161614Y-63878405D01*
X64315150Y-63960472D01*
X64481746Y-64011008D01*
X64655000Y-64028072D01*
X65580000Y-64028072D01*
X65753254Y-64011008D01*
X65919850Y-63960472D01*
X66073386Y-63878405D01*
X66207962Y-63767962D01*
X66318405Y-63633386D01*
X66400472Y-63479850D01*
X66451008Y-63313254D01*
X66468072Y-63140000D01*
X66468072Y-61890000D01*
X66451008Y-61716746D01*
X66400472Y-61550150D01*
X66318405Y-61396614D01*
X66207962Y-61262038D01*
X66073386Y-61151595D01*
X65919850Y-61069528D01*
X65877500Y-61056681D01*
X65877500Y-59939823D01*
X65881176Y-59902500D01*
X65877500Y-59865177D01*
X65877500Y-59865167D01*
X65866503Y-59753514D01*
X65823046Y-59610253D01*
X65806555Y-59579401D01*
X65752474Y-59478223D01*
X65681299Y-59391497D01*
X65657501Y-59362499D01*
X65628504Y-59338702D01*
X62993804Y-56704003D01*
X62970001Y-56674999D01*
X62854276Y-56580026D01*
X62722247Y-56509454D01*
X62578986Y-56465997D01*
X62467333Y-56455000D01*
X62467322Y-56455000D01*
X62430000Y-56451324D01*
X62392678Y-56455000D01*
X57657302Y-56455000D01*
X56419090Y-55216789D01*
X56425472Y-55204850D01*
X56476008Y-55038254D01*
X56493072Y-54865000D01*
X56493072Y-53940000D01*
X60266928Y-53940000D01*
X60266928Y-54865000D01*
X60283992Y-55038254D01*
X60334528Y-55204850D01*
X60416595Y-55358386D01*
X60527038Y-55492962D01*
X60661614Y-55603405D01*
X60815150Y-55685472D01*
X60981746Y-55736008D01*
X61155000Y-55753072D01*
X63305000Y-55753072D01*
X63478254Y-55736008D01*
X63644850Y-55685472D01*
X63798386Y-55603405D01*
X63932962Y-55492962D01*
X64043405Y-55358386D01*
X64125472Y-55204850D01*
X64138319Y-55162500D01*
X71605178Y-55162500D01*
X71642500Y-55166176D01*
X71679822Y-55162500D01*
X71679833Y-55162500D01*
X71791486Y-55151503D01*
X71934747Y-55108046D01*
X72066776Y-55037474D01*
X72182501Y-54942501D01*
X72206303Y-54913498D01*
X72744802Y-54375000D01*
X74902699Y-54375000D01*
X75229627Y-54701928D01*
X74380000Y-54701928D01*
X74206746Y-54718992D01*
X74040150Y-54769528D01*
X73886614Y-54851595D01*
X73752038Y-54962038D01*
X73641595Y-55096614D01*
X73559528Y-55250150D01*
X73508992Y-55416746D01*
X73505224Y-55455000D01*
X73233711Y-55455000D01*
X73189774Y-55411063D01*
X73020256Y-55297795D01*
X72831898Y-55219774D01*
X72631939Y-55180000D01*
X72428061Y-55180000D01*
X72228102Y-55219774D01*
X72039744Y-55297795D01*
X71870226Y-55411063D01*
X71726063Y-55555226D01*
X71612795Y-55724744D01*
X71534774Y-55913102D01*
X71495000Y-56113061D01*
X71495000Y-56316939D01*
X71534774Y-56516898D01*
X71612795Y-56705256D01*
X71726063Y-56874774D01*
X71870226Y-57018937D01*
X72039744Y-57132205D01*
X72228102Y-57210226D01*
X72428061Y-57250000D01*
X72631939Y-57250000D01*
X72831898Y-57210226D01*
X73020256Y-57132205D01*
X73189774Y-57018937D01*
X73233711Y-56975000D01*
X73505224Y-56975000D01*
X73508992Y-57013254D01*
X73559528Y-57179850D01*
X73641595Y-57333386D01*
X73752038Y-57467962D01*
X73886614Y-57578405D01*
X74040150Y-57660472D01*
X74206746Y-57711008D01*
X74380000Y-57728072D01*
X75305000Y-57728072D01*
X75478254Y-57711008D01*
X75644850Y-57660472D01*
X75798386Y-57578405D01*
X75932962Y-57467962D01*
X76043405Y-57333386D01*
X76125472Y-57179850D01*
X76176008Y-57013254D01*
X76193072Y-56840000D01*
X76193072Y-55665374D01*
X76466928Y-55939230D01*
X76466928Y-56840000D01*
X76483992Y-57013254D01*
X76534528Y-57179850D01*
X76616595Y-57333386D01*
X76727038Y-57467962D01*
X76861614Y-57578405D01*
X77015150Y-57660472D01*
X77181746Y-57711008D01*
X77355000Y-57728072D01*
X78280000Y-57728072D01*
X78453254Y-57711008D01*
X78619850Y-57660472D01*
X78773386Y-57578405D01*
X78907962Y-57467962D01*
X79018405Y-57333386D01*
X79100472Y-57179850D01*
X79151008Y-57013254D01*
X79168072Y-56840000D01*
X79168072Y-55590000D01*
X79151008Y-55416746D01*
X79100472Y-55250150D01*
X79018405Y-55096614D01*
X78907962Y-54962038D01*
X78773386Y-54851595D01*
X78619850Y-54769528D01*
X78453254Y-54718992D01*
X78280000Y-54701928D01*
X77379230Y-54701928D01*
X75781304Y-53104003D01*
X75757501Y-53074999D01*
X75641776Y-52980026D01*
X75509747Y-52909454D01*
X75366486Y-52865997D01*
X75254833Y-52855000D01*
X75254822Y-52855000D01*
X75217500Y-52851324D01*
X75180178Y-52855000D01*
X72467322Y-52855000D01*
X72429999Y-52851324D01*
X72392676Y-52855000D01*
X72392667Y-52855000D01*
X72281014Y-52865997D01*
X72137753Y-52909454D01*
X72005724Y-52980026D01*
X71889999Y-53074999D01*
X71866201Y-53103998D01*
X71327699Y-53642500D01*
X64138319Y-53642500D01*
X64125472Y-53600150D01*
X64043405Y-53446614D01*
X63932962Y-53312038D01*
X63798386Y-53201595D01*
X63644850Y-53119528D01*
X63478254Y-53068992D01*
X63305000Y-53051928D01*
X61155000Y-53051928D01*
X60981746Y-53068992D01*
X60815150Y-53119528D01*
X60661614Y-53201595D01*
X60527038Y-53312038D01*
X60416595Y-53446614D01*
X60334528Y-53600150D01*
X60283992Y-53766746D01*
X60266928Y-53940000D01*
X56493072Y-53940000D01*
X56476008Y-53766746D01*
X56425472Y-53600150D01*
X56343405Y-53446614D01*
X56232962Y-53312038D01*
X56098386Y-53201595D01*
X55944850Y-53119528D01*
X55778254Y-53068992D01*
X55605000Y-53051928D01*
X53455000Y-53051928D01*
X53281746Y-53068992D01*
X53115150Y-53119528D01*
X52961614Y-53201595D01*
X52827038Y-53312038D01*
X52716595Y-53446614D01*
X52634528Y-53600150D01*
X52583992Y-53766746D01*
X52566928Y-53940000D01*
X48898444Y-53940000D01*
X48993228Y-53798147D01*
X49120246Y-53491496D01*
X49185000Y-53165958D01*
X49185000Y-52834042D01*
X49120246Y-52508504D01*
X48993228Y-52201853D01*
X48808825Y-51925875D01*
X48574125Y-51691175D01*
X48298147Y-51506772D01*
X47991496Y-51379754D01*
X47665958Y-51315000D01*
X47334042Y-51315000D01*
X47008504Y-51379754D01*
X46701853Y-51506772D01*
X46425875Y-51691175D01*
X46191175Y-51925875D01*
X46006772Y-52201853D01*
X45879754Y-52508504D01*
X45815000Y-52834042D01*
X45215149Y-52834042D01*
X45231944Y-51871890D01*
X45330463Y-50965000D01*
X52566928Y-50965000D01*
X52566928Y-51890000D01*
X52583992Y-52063254D01*
X52634528Y-52229850D01*
X52716595Y-52383386D01*
X52827038Y-52517962D01*
X52961614Y-52628405D01*
X53115150Y-52710472D01*
X53281746Y-52761008D01*
X53455000Y-52778072D01*
X55605000Y-52778072D01*
X55778254Y-52761008D01*
X55944850Y-52710472D01*
X56098386Y-52628405D01*
X56232962Y-52517962D01*
X56343405Y-52383386D01*
X56425472Y-52229850D01*
X56438319Y-52187500D01*
X60321681Y-52187500D01*
X60334528Y-52229850D01*
X60416595Y-52383386D01*
X60527038Y-52517962D01*
X60661614Y-52628405D01*
X60815150Y-52710472D01*
X60981746Y-52761008D01*
X61155000Y-52778072D01*
X63305000Y-52778072D01*
X63478254Y-52761008D01*
X63644850Y-52710472D01*
X63798386Y-52628405D01*
X63932962Y-52517962D01*
X64043405Y-52383386D01*
X64125472Y-52229850D01*
X64176008Y-52063254D01*
X64193072Y-51890000D01*
X64193072Y-50965000D01*
X64176008Y-50791746D01*
X64125472Y-50625150D01*
X64043405Y-50471614D01*
X63932962Y-50337038D01*
X63798386Y-50226595D01*
X63644850Y-50144528D01*
X63478254Y-50093992D01*
X63305000Y-50076928D01*
X61954230Y-50076928D01*
X61090000Y-49212699D01*
X61090000Y-47269909D01*
X61104463Y-47263918D01*
X61372252Y-47084987D01*
X61599987Y-46857252D01*
X61778918Y-46589463D01*
X61902168Y-46291912D01*
X61965000Y-45976033D01*
X61965000Y-45653967D01*
X65195000Y-45653967D01*
X65195000Y-45976033D01*
X65257832Y-46291912D01*
X65381082Y-46589463D01*
X65560013Y-46857252D01*
X65787748Y-47084987D01*
X66055537Y-47263918D01*
X66353088Y-47387168D01*
X66668967Y-47450000D01*
X66991033Y-47450000D01*
X67306912Y-47387168D01*
X67604463Y-47263918D01*
X67872252Y-47084987D01*
X68099987Y-46857252D01*
X68278918Y-46589463D01*
X68402168Y-46291912D01*
X68465000Y-45976033D01*
X68465000Y-45653967D01*
X68445109Y-45553967D01*
X80895000Y-45553967D01*
X80895000Y-45876033D01*
X80957832Y-46191912D01*
X81081082Y-46489463D01*
X81260013Y-46757252D01*
X81487748Y-46984987D01*
X81755537Y-47163918D01*
X81770000Y-47169909D01*
X81770001Y-57277668D01*
X81766324Y-57315000D01*
X81770001Y-57352333D01*
X81777799Y-57431501D01*
X81780998Y-57463985D01*
X81824454Y-57607246D01*
X81895026Y-57739276D01*
X81950013Y-57806277D01*
X81990000Y-57855001D01*
X82018998Y-57878799D01*
X90266201Y-66126003D01*
X90289999Y-66155001D01*
X90318997Y-66178799D01*
X90405724Y-66249974D01*
X90537753Y-66320546D01*
X90681014Y-66364003D01*
X90830000Y-66378677D01*
X90867333Y-66375000D01*
X108392678Y-66375000D01*
X108430000Y-66378676D01*
X108467322Y-66375000D01*
X108467333Y-66375000D01*
X108578986Y-66364003D01*
X108722247Y-66320546D01*
X108854276Y-66249974D01*
X108970001Y-66155001D01*
X108993804Y-66125997D01*
X110641004Y-64478798D01*
X110670001Y-64455001D01*
X110696332Y-64422917D01*
X110764974Y-64339277D01*
X110835546Y-64207247D01*
X110852324Y-64151935D01*
X110879003Y-64063986D01*
X110890000Y-63952333D01*
X110890000Y-63952324D01*
X110893676Y-63915001D01*
X110890000Y-63877678D01*
X110890000Y-59452325D01*
X110893676Y-59415000D01*
X110890000Y-59377675D01*
X110890000Y-59377667D01*
X110879003Y-59266014D01*
X110835546Y-59122753D01*
X110764974Y-58990724D01*
X110670001Y-58874999D01*
X110640997Y-58851196D01*
X110606304Y-58816503D01*
X110582501Y-58787499D01*
X110466776Y-58692526D01*
X110334747Y-58621954D01*
X110191486Y-58578497D01*
X110079833Y-58567500D01*
X110079822Y-58567500D01*
X110042500Y-58563824D01*
X110005178Y-58567500D01*
X108838319Y-58567500D01*
X108825472Y-58525150D01*
X108743405Y-58371614D01*
X108632962Y-58237038D01*
X108498386Y-58126595D01*
X108344850Y-58044528D01*
X108178254Y-57993992D01*
X108005000Y-57976928D01*
X105855000Y-57976928D01*
X105681746Y-57993992D01*
X105515150Y-58044528D01*
X105361614Y-58126595D01*
X105227038Y-58237038D01*
X105116595Y-58371614D01*
X105034528Y-58525150D01*
X104983992Y-58691746D01*
X104966928Y-58865000D01*
X104966928Y-59790000D01*
X104983992Y-59963254D01*
X105034528Y-60129850D01*
X105116595Y-60283386D01*
X105227038Y-60417962D01*
X105361614Y-60528405D01*
X105515150Y-60610472D01*
X105681746Y-60661008D01*
X105855000Y-60678072D01*
X108005000Y-60678072D01*
X108178254Y-60661008D01*
X108344850Y-60610472D01*
X108498386Y-60528405D01*
X108632962Y-60417962D01*
X108743405Y-60283386D01*
X108825472Y-60129850D01*
X108838319Y-60087500D01*
X109370001Y-60087500D01*
X109370000Y-61077667D01*
X109370000Y-61490522D01*
X109370001Y-61490531D01*
X109370000Y-63600198D01*
X108115199Y-64855000D01*
X91144802Y-64855000D01*
X85502863Y-59213061D01*
X91995000Y-59213061D01*
X91995000Y-59416939D01*
X92034774Y-59616898D01*
X92112795Y-59805256D01*
X92226063Y-59974774D01*
X92370226Y-60118937D01*
X92539744Y-60232205D01*
X92728102Y-60310226D01*
X92928061Y-60350000D01*
X92990198Y-60350000D01*
X93082501Y-60442303D01*
X93082501Y-61056681D01*
X93040150Y-61069528D01*
X92886614Y-61151595D01*
X92752038Y-61262038D01*
X92641595Y-61396614D01*
X92559528Y-61550150D01*
X92508992Y-61716746D01*
X92491928Y-61890000D01*
X92491928Y-63140000D01*
X92508992Y-63313254D01*
X92559528Y-63479850D01*
X92641595Y-63633386D01*
X92752038Y-63767962D01*
X92886614Y-63878405D01*
X93040150Y-63960472D01*
X93206746Y-64011008D01*
X93380000Y-64028072D01*
X94305000Y-64028072D01*
X94478254Y-64011008D01*
X94644850Y-63960472D01*
X94798386Y-63878405D01*
X94932962Y-63767962D01*
X95043405Y-63633386D01*
X95125472Y-63479850D01*
X95176008Y-63313254D01*
X95193072Y-63140000D01*
X95193072Y-61890000D01*
X95466928Y-61890000D01*
X95466928Y-63140000D01*
X95483992Y-63313254D01*
X95534528Y-63479850D01*
X95616595Y-63633386D01*
X95727038Y-63767962D01*
X95861614Y-63878405D01*
X96015150Y-63960472D01*
X96181746Y-64011008D01*
X96355000Y-64028072D01*
X97280000Y-64028072D01*
X97453254Y-64011008D01*
X97619850Y-63960472D01*
X97773386Y-63878405D01*
X97907962Y-63767962D01*
X98018405Y-63633386D01*
X98100472Y-63479850D01*
X98151008Y-63313254D01*
X98168072Y-63140000D01*
X98168072Y-62279290D01*
X104966928Y-62279290D01*
X104966928Y-62765000D01*
X104983992Y-62938254D01*
X105034528Y-63104850D01*
X105116595Y-63258386D01*
X105227038Y-63392962D01*
X105361614Y-63503405D01*
X105515150Y-63585472D01*
X105681746Y-63636008D01*
X105855000Y-63653072D01*
X108005000Y-63653072D01*
X108178254Y-63636008D01*
X108344850Y-63585472D01*
X108498386Y-63503405D01*
X108632962Y-63392962D01*
X108743405Y-63258386D01*
X108825472Y-63104850D01*
X108876008Y-62938254D01*
X108893072Y-62765000D01*
X108893072Y-61840000D01*
X108876008Y-61666746D01*
X108825472Y-61500150D01*
X108743405Y-61346614D01*
X108632962Y-61212038D01*
X108498386Y-61101595D01*
X108344850Y-61019528D01*
X108178254Y-60968992D01*
X108005000Y-60951928D01*
X106653452Y-60951928D01*
X106571066Y-60884316D01*
X106439037Y-60813744D01*
X106295776Y-60770287D01*
X106184123Y-60759290D01*
X106184112Y-60759290D01*
X106146790Y-60755614D01*
X106109468Y-60759290D01*
X97850532Y-60759290D01*
X97813209Y-60755614D01*
X97775886Y-60759290D01*
X97775877Y-60759290D01*
X97664224Y-60770287D01*
X97520963Y-60813744D01*
X97388934Y-60884316D01*
X97273209Y-60979289D01*
X97254630Y-61001928D01*
X96355000Y-61001928D01*
X96181746Y-61018992D01*
X96015150Y-61069528D01*
X95861614Y-61151595D01*
X95727038Y-61262038D01*
X95616595Y-61396614D01*
X95534528Y-61550150D01*
X95483992Y-61716746D01*
X95466928Y-61890000D01*
X95193072Y-61890000D01*
X95176008Y-61716746D01*
X95125472Y-61550150D01*
X95043405Y-61396614D01*
X94932962Y-61262038D01*
X94798386Y-61151595D01*
X94644850Y-61069528D01*
X94602500Y-61056681D01*
X94602500Y-60164833D01*
X94606177Y-60127500D01*
X94591503Y-59978514D01*
X94548046Y-59835253D01*
X94477474Y-59703224D01*
X94406299Y-59616497D01*
X94382501Y-59587499D01*
X94353502Y-59563701D01*
X94065000Y-59275198D01*
X94065000Y-59213061D01*
X94025226Y-59013102D01*
X93947205Y-58824744D01*
X93918653Y-58782013D01*
X93918653Y-57678072D01*
X94392500Y-57678072D01*
X94565754Y-57661008D01*
X94732350Y-57610472D01*
X94885886Y-57528405D01*
X95020462Y-57417962D01*
X95130905Y-57283386D01*
X95212972Y-57129850D01*
X95263508Y-56963254D01*
X95280572Y-56790000D01*
X95280572Y-55540000D01*
X95554428Y-55540000D01*
X95554428Y-56790000D01*
X95571492Y-56963254D01*
X95622028Y-57129850D01*
X95704095Y-57283386D01*
X95814538Y-57417962D01*
X95949114Y-57528405D01*
X96102650Y-57610472D01*
X96269246Y-57661008D01*
X96442500Y-57678072D01*
X97367500Y-57678072D01*
X97540754Y-57661008D01*
X97707350Y-57610472D01*
X97860886Y-57528405D01*
X97995462Y-57417962D01*
X98105905Y-57283386D01*
X98187972Y-57129850D01*
X98238508Y-56963254D01*
X98255572Y-56790000D01*
X98255572Y-56050000D01*
X106821681Y-56050000D01*
X106834528Y-56092350D01*
X106916595Y-56245886D01*
X107027038Y-56380462D01*
X107161614Y-56490905D01*
X107315150Y-56572972D01*
X107481746Y-56623508D01*
X107655000Y-56640572D01*
X109805000Y-56640572D01*
X109978254Y-56623508D01*
X110144850Y-56572972D01*
X110298386Y-56490905D01*
X110432962Y-56380462D01*
X110543405Y-56245886D01*
X110625472Y-56092350D01*
X110676008Y-55925754D01*
X110693072Y-55752500D01*
X110693072Y-54827500D01*
X110676008Y-54654246D01*
X110625472Y-54487650D01*
X110543405Y-54334114D01*
X110432962Y-54199538D01*
X110298386Y-54089095D01*
X110144850Y-54007028D01*
X109978254Y-53956492D01*
X109805000Y-53939428D01*
X107655000Y-53939428D01*
X107481746Y-53956492D01*
X107315150Y-54007028D01*
X107161614Y-54089095D01*
X107027038Y-54199538D01*
X106916595Y-54334114D01*
X106834528Y-54487650D01*
X106821681Y-54530000D01*
X97817323Y-54530000D01*
X97780000Y-54526324D01*
X97742677Y-54530000D01*
X97742667Y-54530000D01*
X97631014Y-54540997D01*
X97487753Y-54584454D01*
X97361520Y-54651928D01*
X96442500Y-54651928D01*
X96269246Y-54668992D01*
X96102650Y-54719528D01*
X95949114Y-54801595D01*
X95814538Y-54912038D01*
X95704095Y-55046614D01*
X95622028Y-55200150D01*
X95571492Y-55366746D01*
X95554428Y-55540000D01*
X95280572Y-55540000D01*
X95263508Y-55366746D01*
X95212972Y-55200150D01*
X95130905Y-55046614D01*
X95020462Y-54912038D01*
X94885886Y-54801595D01*
X94732350Y-54719528D01*
X94565754Y-54668992D01*
X94392500Y-54651928D01*
X93467500Y-54651928D01*
X93294246Y-54668992D01*
X93127650Y-54719528D01*
X92974114Y-54801595D01*
X92839538Y-54912038D01*
X92729095Y-55046614D01*
X92647028Y-55200150D01*
X92596492Y-55366746D01*
X92579428Y-55540000D01*
X92579428Y-56444141D01*
X92573533Y-56451324D01*
X92523679Y-56512071D01*
X92464114Y-56623508D01*
X92453107Y-56644101D01*
X92409650Y-56787362D01*
X92398653Y-56899015D01*
X92398653Y-56899025D01*
X92394977Y-56936347D01*
X92398653Y-56973670D01*
X92398654Y-58492068D01*
X92370226Y-58511063D01*
X92226063Y-58655226D01*
X92112795Y-58824744D01*
X92034774Y-59013102D01*
X91995000Y-59213061D01*
X85502863Y-59213061D01*
X83290000Y-57000199D01*
X83290000Y-47169909D01*
X83304463Y-47163918D01*
X83572252Y-46984987D01*
X83799987Y-46757252D01*
X83978918Y-46489463D01*
X84102168Y-46191912D01*
X84165000Y-45876033D01*
X84165000Y-45553967D01*
X87395000Y-45553967D01*
X87395000Y-45876033D01*
X87457832Y-46191912D01*
X87581082Y-46489463D01*
X87760013Y-46757252D01*
X87987748Y-46984987D01*
X88255537Y-47163918D01*
X88553088Y-47287168D01*
X88868967Y-47350000D01*
X89191033Y-47350000D01*
X89506912Y-47287168D01*
X89804463Y-47163918D01*
X90072252Y-46984987D01*
X90299987Y-46757252D01*
X90478918Y-46489463D01*
X90602168Y-46191912D01*
X90665000Y-45876033D01*
X90665000Y-45653967D01*
X96895000Y-45653967D01*
X96895000Y-45976033D01*
X96957832Y-46291912D01*
X97081082Y-46589463D01*
X97260013Y-46857252D01*
X97487748Y-47084987D01*
X97755537Y-47263918D01*
X97770001Y-47269909D01*
X97770000Y-48953921D01*
X97735998Y-49066015D01*
X97721324Y-49215000D01*
X97735998Y-49363985D01*
X97779454Y-49507246D01*
X97850026Y-49639276D01*
X97944999Y-49755001D01*
X97974003Y-49778804D01*
X100237990Y-52042792D01*
X100261789Y-52071791D01*
X100377514Y-52166764D01*
X100509543Y-52237336D01*
X100652804Y-52280793D01*
X100764457Y-52291790D01*
X100764467Y-52291790D01*
X100801790Y-52295466D01*
X100839113Y-52291790D01*
X106766928Y-52291790D01*
X106766928Y-52777500D01*
X106783992Y-52950754D01*
X106834528Y-53117350D01*
X106916595Y-53270886D01*
X107027038Y-53405462D01*
X107161614Y-53515905D01*
X107315150Y-53597972D01*
X107481746Y-53648508D01*
X107655000Y-53665572D01*
X109805000Y-53665572D01*
X109978254Y-53648508D01*
X110144850Y-53597972D01*
X110298386Y-53515905D01*
X110432962Y-53405462D01*
X110543405Y-53270886D01*
X110625472Y-53117350D01*
X110676008Y-52950754D01*
X110687503Y-52834042D01*
X115815000Y-52834042D01*
X115815000Y-53165958D01*
X115879754Y-53491496D01*
X116006772Y-53798147D01*
X116191175Y-54074125D01*
X116425875Y-54308825D01*
X116701853Y-54493228D01*
X117008504Y-54620246D01*
X117334042Y-54685000D01*
X117665958Y-54685000D01*
X117991496Y-54620246D01*
X118298147Y-54493228D01*
X118574125Y-54308825D01*
X118808825Y-54074125D01*
X118993228Y-53798147D01*
X119120246Y-53491496D01*
X119185000Y-53165958D01*
X119185000Y-52834042D01*
X119120246Y-52508504D01*
X118993228Y-52201853D01*
X118808825Y-51925875D01*
X118574125Y-51691175D01*
X118298147Y-51506772D01*
X117991496Y-51379754D01*
X117665958Y-51315000D01*
X117334042Y-51315000D01*
X117008504Y-51379754D01*
X116701853Y-51506772D01*
X116425875Y-51691175D01*
X116191175Y-51925875D01*
X116006772Y-52201853D01*
X115879754Y-52508504D01*
X115815000Y-52834042D01*
X110687503Y-52834042D01*
X110693072Y-52777500D01*
X110693072Y-51852500D01*
X110676008Y-51679246D01*
X110625472Y-51512650D01*
X110543405Y-51359114D01*
X110432962Y-51224538D01*
X110298386Y-51114095D01*
X110144850Y-51032028D01*
X109978254Y-50981492D01*
X109805000Y-50964428D01*
X108453452Y-50964428D01*
X108371066Y-50896816D01*
X108239037Y-50826244D01*
X108095776Y-50782787D01*
X107984123Y-50771790D01*
X107984112Y-50771790D01*
X107946790Y-50768114D01*
X107909468Y-50771790D01*
X101116592Y-50771790D01*
X99290000Y-48945199D01*
X99290000Y-47269909D01*
X99304463Y-47263918D01*
X99572252Y-47084987D01*
X99799987Y-46857252D01*
X99978918Y-46589463D01*
X100102168Y-46291912D01*
X100165000Y-45976033D01*
X100165000Y-45653967D01*
X103395000Y-45653967D01*
X103395000Y-45976033D01*
X103457832Y-46291912D01*
X103581082Y-46589463D01*
X103760013Y-46857252D01*
X103987748Y-47084987D01*
X104255537Y-47263918D01*
X104553088Y-47387168D01*
X104868967Y-47450000D01*
X105191033Y-47450000D01*
X105506912Y-47387168D01*
X105804463Y-47263918D01*
X106072252Y-47084987D01*
X106299987Y-46857252D01*
X106478918Y-46589463D01*
X106602168Y-46291912D01*
X106665000Y-45976033D01*
X106665000Y-45653967D01*
X106602168Y-45338088D01*
X106478918Y-45040537D01*
X106299987Y-44772748D01*
X106072252Y-44545013D01*
X105804463Y-44366082D01*
X105506912Y-44242832D01*
X105191033Y-44180000D01*
X104868967Y-44180000D01*
X104553088Y-44242832D01*
X104255537Y-44366082D01*
X103987748Y-44545013D01*
X103760013Y-44772748D01*
X103581082Y-45040537D01*
X103457832Y-45338088D01*
X103395000Y-45653967D01*
X100165000Y-45653967D01*
X100102168Y-45338088D01*
X99978918Y-45040537D01*
X99799987Y-44772748D01*
X99572252Y-44545013D01*
X99304463Y-44366082D01*
X99006912Y-44242832D01*
X98691033Y-44180000D01*
X98368967Y-44180000D01*
X98053088Y-44242832D01*
X97755537Y-44366082D01*
X97487748Y-44545013D01*
X97260013Y-44772748D01*
X97081082Y-45040537D01*
X96957832Y-45338088D01*
X96895000Y-45653967D01*
X90665000Y-45653967D01*
X90665000Y-45553967D01*
X90602168Y-45238088D01*
X90478918Y-44940537D01*
X90299987Y-44672748D01*
X90072252Y-44445013D01*
X89804463Y-44266082D01*
X89506912Y-44142832D01*
X89191033Y-44080000D01*
X88868967Y-44080000D01*
X88553088Y-44142832D01*
X88255537Y-44266082D01*
X87987748Y-44445013D01*
X87760013Y-44672748D01*
X87581082Y-44940537D01*
X87457832Y-45238088D01*
X87395000Y-45553967D01*
X84165000Y-45553967D01*
X84102168Y-45238088D01*
X83978918Y-44940537D01*
X83799987Y-44672748D01*
X83572252Y-44445013D01*
X83304463Y-44266082D01*
X83006912Y-44142832D01*
X82691033Y-44080000D01*
X82368967Y-44080000D01*
X82053088Y-44142832D01*
X81755537Y-44266082D01*
X81487748Y-44445013D01*
X81260013Y-44672748D01*
X81081082Y-44940537D01*
X80957832Y-45238088D01*
X80895000Y-45553967D01*
X68445109Y-45553967D01*
X68402168Y-45338088D01*
X68278918Y-45040537D01*
X68099987Y-44772748D01*
X67872252Y-44545013D01*
X67604463Y-44366082D01*
X67306912Y-44242832D01*
X66991033Y-44180000D01*
X66668967Y-44180000D01*
X66353088Y-44242832D01*
X66055537Y-44366082D01*
X65787748Y-44545013D01*
X65560013Y-44772748D01*
X65381082Y-45040537D01*
X65257832Y-45338088D01*
X65195000Y-45653967D01*
X61965000Y-45653967D01*
X61902168Y-45338088D01*
X61778918Y-45040537D01*
X61599987Y-44772748D01*
X61372252Y-44545013D01*
X61104463Y-44366082D01*
X60806912Y-44242832D01*
X60491033Y-44180000D01*
X60168967Y-44180000D01*
X59853088Y-44242832D01*
X59555537Y-44366082D01*
X59287748Y-44545013D01*
X59060013Y-44772748D01*
X58881082Y-45040537D01*
X58757832Y-45338088D01*
X58695000Y-45653967D01*
X58695000Y-45976033D01*
X58757832Y-46291912D01*
X58881082Y-46589463D01*
X59060013Y-46857252D01*
X59287748Y-47084987D01*
X59555537Y-47263918D01*
X59570000Y-47269909D01*
X59570001Y-49490168D01*
X59566324Y-49527500D01*
X59570001Y-49564833D01*
X59580998Y-49676486D01*
X59592321Y-49713814D01*
X59624454Y-49819746D01*
X59695026Y-49951776D01*
X59766201Y-50038502D01*
X59790000Y-50067501D01*
X59818998Y-50091299D01*
X60340910Y-50613211D01*
X60334528Y-50625150D01*
X60321681Y-50667500D01*
X56438319Y-50667500D01*
X56425472Y-50625150D01*
X56343405Y-50471614D01*
X56232962Y-50337038D01*
X56098386Y-50226595D01*
X55944850Y-50144528D01*
X55778254Y-50093992D01*
X55605000Y-50076928D01*
X53455000Y-50076928D01*
X53281746Y-50093992D01*
X53115150Y-50144528D01*
X52961614Y-50226595D01*
X52827038Y-50337038D01*
X52716595Y-50471614D01*
X52634528Y-50625150D01*
X52583992Y-50791746D01*
X52566928Y-50965000D01*
X45330463Y-50965000D01*
X45411882Y-50215532D01*
X45741204Y-48582274D01*
X46217192Y-46985601D01*
X46835938Y-45438626D01*
X47592336Y-43954114D01*
X48480168Y-42544256D01*
X49492129Y-41220666D01*
X49553461Y-41153967D01*
X65195000Y-41153967D01*
X65195000Y-41476033D01*
X65257832Y-41791912D01*
X65381082Y-42089463D01*
X65560013Y-42357252D01*
X65787748Y-42584987D01*
X66055537Y-42763918D01*
X66353088Y-42887168D01*
X66668967Y-42950000D01*
X66991033Y-42950000D01*
X67306912Y-42887168D01*
X67604463Y-42763918D01*
X67872252Y-42584987D01*
X68099987Y-42357252D01*
X68278918Y-42089463D01*
X68402168Y-41791912D01*
X68465000Y-41476033D01*
X68465000Y-41153967D01*
X68445109Y-41053967D01*
X87395000Y-41053967D01*
X87395000Y-41376033D01*
X87457832Y-41691912D01*
X87581082Y-41989463D01*
X87760013Y-42257252D01*
X87987748Y-42484987D01*
X88255537Y-42663918D01*
X88553088Y-42787168D01*
X88868967Y-42850000D01*
X89191033Y-42850000D01*
X89506912Y-42787168D01*
X89804463Y-42663918D01*
X90072252Y-42484987D01*
X90299987Y-42257252D01*
X90478918Y-41989463D01*
X90602168Y-41691912D01*
X90665000Y-41376033D01*
X90665000Y-41153967D01*
X103395000Y-41153967D01*
X103395000Y-41476033D01*
X103457832Y-41791912D01*
X103581082Y-42089463D01*
X103760013Y-42357252D01*
X103987748Y-42584987D01*
X104255537Y-42763918D01*
X104553088Y-42887168D01*
X104868967Y-42950000D01*
X105191033Y-42950000D01*
X105506912Y-42887168D01*
X105804463Y-42763918D01*
X106072252Y-42584987D01*
X106299987Y-42357252D01*
X106478918Y-42089463D01*
X106602168Y-41791912D01*
X106665000Y-41476033D01*
X106665000Y-41153967D01*
X106602168Y-40838088D01*
X106478918Y-40540537D01*
X106299987Y-40272748D01*
X106072252Y-40045013D01*
X105804463Y-39866082D01*
X105506912Y-39742832D01*
X105191033Y-39680000D01*
X104868967Y-39680000D01*
X104553088Y-39742832D01*
X104255537Y-39866082D01*
X103987748Y-40045013D01*
X103760013Y-40272748D01*
X103581082Y-40540537D01*
X103457832Y-40838088D01*
X103395000Y-41153967D01*
X90665000Y-41153967D01*
X90665000Y-41053967D01*
X90602168Y-40738088D01*
X90478918Y-40440537D01*
X90299987Y-40172748D01*
X90072252Y-39945013D01*
X89804463Y-39766082D01*
X89506912Y-39642832D01*
X89191033Y-39580000D01*
X88868967Y-39580000D01*
X88553088Y-39642832D01*
X88255537Y-39766082D01*
X87987748Y-39945013D01*
X87760013Y-40172748D01*
X87581082Y-40440537D01*
X87457832Y-40738088D01*
X87395000Y-41053967D01*
X68445109Y-41053967D01*
X68402168Y-40838088D01*
X68278918Y-40540537D01*
X68099987Y-40272748D01*
X67872252Y-40045013D01*
X67604463Y-39866082D01*
X67306912Y-39742832D01*
X66991033Y-39680000D01*
X66668967Y-39680000D01*
X66353088Y-39742832D01*
X66055537Y-39866082D01*
X65787748Y-40045013D01*
X65560013Y-40272748D01*
X65381082Y-40540537D01*
X65257832Y-40838088D01*
X65195000Y-41153967D01*
X49553461Y-41153967D01*
X50619885Y-39994240D01*
X51854161Y-38875065D01*
X53184784Y-37872370D01*
X54600803Y-36994402D01*
X56090571Y-36248382D01*
X57641814Y-35640456D01*
X59241774Y-35175624D01*
X60556156Y-34920134D01*
X60524188Y-35025518D01*
X60511928Y-35150000D01*
X60511928Y-36850000D01*
X60524188Y-36974482D01*
X60560498Y-37094180D01*
X60619463Y-37204494D01*
X60698815Y-37301185D01*
X60795506Y-37380537D01*
X60905820Y-37439502D01*
X61025518Y-37475812D01*
X61150000Y-37488072D01*
X62850000Y-37488072D01*
X62974482Y-37475812D01*
X63094180Y-37439502D01*
X63204494Y-37380537D01*
X63301185Y-37301185D01*
X63380537Y-37204494D01*
X63439502Y-37094180D01*
X63475812Y-36974482D01*
X63488072Y-36850000D01*
X63488072Y-36834042D01*
X70815000Y-36834042D01*
X70815000Y-37165958D01*
X70879754Y-37491496D01*
X71006772Y-37798147D01*
X71191175Y-38074125D01*
X71425875Y-38308825D01*
X71701853Y-38493228D01*
X72008504Y-38620246D01*
X72334042Y-38685000D01*
X72665958Y-38685000D01*
X72991496Y-38620246D01*
X73298147Y-38493228D01*
X73574125Y-38308825D01*
X73808825Y-38074125D01*
X73993228Y-37798147D01*
X74120246Y-37491496D01*
X74185000Y-37165958D01*
X74185000Y-36834042D01*
X90815000Y-36834042D01*
X90815000Y-37165958D01*
X90879754Y-37491496D01*
X91006772Y-37798147D01*
X91191175Y-38074125D01*
X91425875Y-38308825D01*
X91701853Y-38493228D01*
X92008504Y-38620246D01*
X92334042Y-38685000D01*
X92665958Y-38685000D01*
X92991496Y-38620246D01*
X93298147Y-38493228D01*
X93574125Y-38308825D01*
X93808825Y-38074125D01*
X93993228Y-37798147D01*
X94120246Y-37491496D01*
X94185000Y-37165958D01*
X94185000Y-36834042D01*
X94120246Y-36508504D01*
X93993228Y-36201853D01*
X93808825Y-35925875D01*
X93574125Y-35691175D01*
X93298147Y-35506772D01*
X92991496Y-35379754D01*
X92665958Y-35315000D01*
X92334042Y-35315000D01*
X92008504Y-35379754D01*
X91701853Y-35506772D01*
X91425875Y-35691175D01*
X91191175Y-35925875D01*
X91006772Y-36201853D01*
X90879754Y-36508504D01*
X90815000Y-36834042D01*
X74185000Y-36834042D01*
X74120246Y-36508504D01*
X73993228Y-36201853D01*
X73808825Y-35925875D01*
X73574125Y-35691175D01*
X73298147Y-35506772D01*
X72991496Y-35379754D01*
X72665958Y-35315000D01*
X72334042Y-35315000D01*
X72008504Y-35379754D01*
X71701853Y-35506772D01*
X71425875Y-35691175D01*
X71191175Y-35925875D01*
X71006772Y-36201853D01*
X70879754Y-36508504D01*
X70815000Y-36834042D01*
X63488072Y-36834042D01*
X63488072Y-35150000D01*
X63475812Y-35025518D01*
X63439502Y-34905820D01*
X63380537Y-34795506D01*
X63301185Y-34698815D01*
X63264280Y-34668528D01*
X63569533Y-34660001D01*
X101644471Y-34660001D01*
X103324407Y-34736286D01*
X103324407Y-34736286D01*
G37*
X103324407Y-34736286D02*
X104975106Y-34962404D01*
X106598517Y-35337198D01*
X108181288Y-35857586D01*
X109710381Y-36519284D01*
X111173202Y-37316840D01*
X112557720Y-38243694D01*
X113852532Y-39292212D01*
X115046989Y-40453771D01*
X116131260Y-41718810D01*
X117096412Y-43076910D01*
X117934500Y-44516890D01*
X118638638Y-46026918D01*
X119203010Y-47594524D01*
X119622989Y-49206845D01*
X119895112Y-50850599D01*
X120017134Y-52512229D01*
X119988056Y-54178110D01*
X119808118Y-55834468D01*
X119478796Y-57467726D01*
X119002808Y-59064399D01*
X118384062Y-60611374D01*
X117627665Y-62095886D01*
X116739826Y-63505751D01*
X115727867Y-64829338D01*
X114600105Y-66055771D01*
X113365839Y-67174935D01*
X112035223Y-68177625D01*
X110619205Y-69055594D01*
X109129429Y-69801618D01*
X107578183Y-70409545D01*
X105978228Y-70874376D01*
X104342707Y-71192289D01*
X102679173Y-71361264D01*
X101650432Y-71390000D01*
X63575550Y-71390000D01*
X61895593Y-71313714D01*
X60244894Y-71087596D01*
X58621486Y-70712803D01*
X57038712Y-70192414D01*
X55509626Y-69530719D01*
X54231830Y-68834042D01*
X70815000Y-68834042D01*
X70815000Y-69165958D01*
X70879754Y-69491496D01*
X71006772Y-69798147D01*
X71191175Y-70074125D01*
X71425875Y-70308825D01*
X71701853Y-70493228D01*
X72008504Y-70620246D01*
X72334042Y-70685000D01*
X72665958Y-70685000D01*
X72991496Y-70620246D01*
X73298147Y-70493228D01*
X73574125Y-70308825D01*
X73808825Y-70074125D01*
X73993228Y-69798147D01*
X74120246Y-69491496D01*
X74185000Y-69165958D01*
X74185000Y-68834042D01*
X90815000Y-68834042D01*
X90815000Y-69165958D01*
X90879754Y-69491496D01*
X91006772Y-69798147D01*
X91191175Y-70074125D01*
X91425875Y-70308825D01*
X91701853Y-70493228D01*
X92008504Y-70620246D01*
X92334042Y-70685000D01*
X92665958Y-70685000D01*
X92991496Y-70620246D01*
X93298147Y-70493228D01*
X93574125Y-70308825D01*
X93808825Y-70074125D01*
X93993228Y-69798147D01*
X94120246Y-69491496D01*
X94185000Y-69165958D01*
X94185000Y-68834042D01*
X94120246Y-68508504D01*
X93993228Y-68201853D01*
X93808825Y-67925875D01*
X93574125Y-67691175D01*
X93298147Y-67506772D01*
X92991496Y-67379754D01*
X92665958Y-67315000D01*
X92334042Y-67315000D01*
X92008504Y-67379754D01*
X91701853Y-67506772D01*
X91425875Y-67691175D01*
X91191175Y-67925875D01*
X91006772Y-68201853D01*
X90879754Y-68508504D01*
X90815000Y-68834042D01*
X74185000Y-68834042D01*
X74120246Y-68508504D01*
X73993228Y-68201853D01*
X73808825Y-67925875D01*
X73574125Y-67691175D01*
X73298147Y-67506772D01*
X72991496Y-67379754D01*
X72665958Y-67315000D01*
X72334042Y-67315000D01*
X72008504Y-67379754D01*
X71701853Y-67506772D01*
X71425875Y-67691175D01*
X71191175Y-67925875D01*
X71006772Y-68201853D01*
X70879754Y-68508504D01*
X70815000Y-68834042D01*
X54231830Y-68834042D01*
X54046806Y-68733164D01*
X52662285Y-67806310D01*
X51367468Y-66757788D01*
X50173006Y-65596224D01*
X49088735Y-64331184D01*
X48123582Y-62973080D01*
X47623040Y-62113061D01*
X58695000Y-62113061D01*
X58695000Y-62316939D01*
X58734774Y-62516898D01*
X58812795Y-62705256D01*
X58926063Y-62874774D01*
X59070226Y-63018937D01*
X59239744Y-63132205D01*
X59428102Y-63210226D01*
X59628061Y-63250000D01*
X59831939Y-63250000D01*
X60031898Y-63210226D01*
X60220256Y-63132205D01*
X60389774Y-63018937D01*
X60433711Y-62975000D01*
X60715199Y-62975000D01*
X60766196Y-63025997D01*
X60789999Y-63055001D01*
X60791928Y-63056584D01*
X60791928Y-63140000D01*
X60808992Y-63313254D01*
X60859528Y-63479850D01*
X60941595Y-63633386D01*
X61052038Y-63767962D01*
X61186614Y-63878405D01*
X61340150Y-63960472D01*
X61506746Y-64011008D01*
X61680000Y-64028072D01*
X62605000Y-64028072D01*
X62778254Y-64011008D01*
X62944850Y-63960472D01*
X63098386Y-63878405D01*
X63232962Y-63767962D01*
X63343405Y-63633386D01*
X63425472Y-63479850D01*
X63476008Y-63313254D01*
X63493072Y-63140000D01*
X63493072Y-61890000D01*
X63476008Y-61716746D01*
X63425472Y-61550150D01*
X63343405Y-61396614D01*
X63232962Y-61262038D01*
X63098386Y-61151595D01*
X62944850Y-61069528D01*
X62778254Y-61018992D01*
X62605000Y-61001928D01*
X61680000Y-61001928D01*
X61506746Y-61018992D01*
X61340150Y-61069528D01*
X61186614Y-61151595D01*
X61052038Y-61262038D01*
X60941595Y-61396614D01*
X60910387Y-61455000D01*
X60433711Y-61455000D01*
X60389774Y-61411063D01*
X60220256Y-61297795D01*
X60031898Y-61219774D01*
X59831939Y-61180000D01*
X59628061Y-61180000D01*
X59428102Y-61219774D01*
X59239744Y-61297795D01*
X59070226Y-61411063D01*
X58926063Y-61555226D01*
X58812795Y-61724744D01*
X58734774Y-61913102D01*
X58695000Y-62113061D01*
X47623040Y-62113061D01*
X47285500Y-61533110D01*
X46581362Y-60023082D01*
X46016991Y-58455480D01*
X45597010Y-56843152D01*
X45324888Y-55199402D01*
X45202866Y-53537771D01*
X45215149Y-52834042D01*
X45815000Y-52834042D01*
X45815000Y-53165958D01*
X45879754Y-53491496D01*
X46006772Y-53798147D01*
X46191175Y-54074125D01*
X46425875Y-54308825D01*
X46701853Y-54493228D01*
X47008504Y-54620246D01*
X47334042Y-54685000D01*
X47665958Y-54685000D01*
X47991496Y-54620246D01*
X48298147Y-54493228D01*
X48574125Y-54308825D01*
X48808825Y-54074125D01*
X48898444Y-53940000D01*
X52566928Y-53940000D01*
X52566928Y-54865000D01*
X52583992Y-55038254D01*
X52634528Y-55204850D01*
X52716595Y-55358386D01*
X52827038Y-55492962D01*
X52961614Y-55603405D01*
X53115150Y-55685472D01*
X53281746Y-55736008D01*
X53455000Y-55753072D01*
X54805771Y-55753072D01*
X56778700Y-57726002D01*
X56802499Y-57755001D01*
X56918224Y-57849974D01*
X57050253Y-57920546D01*
X57193514Y-57964003D01*
X57305167Y-57975000D01*
X57305175Y-57975000D01*
X57342500Y-57978676D01*
X57379825Y-57975000D01*
X62115199Y-57975000D01*
X64357500Y-60217302D01*
X64357500Y-61056681D01*
X64315150Y-61069528D01*
X64161614Y-61151595D01*
X64027038Y-61262038D01*
X63916595Y-61396614D01*
X63834528Y-61550150D01*
X63783992Y-61716746D01*
X63766928Y-61890000D01*
X63766928Y-63140000D01*
X63783992Y-63313254D01*
X63834528Y-63479850D01*
X63916595Y-63633386D01*
X64027038Y-63767962D01*
X64161614Y-63878405D01*
X64315150Y-63960472D01*
X64481746Y-64011008D01*
X64655000Y-64028072D01*
X65580000Y-64028072D01*
X65753254Y-64011008D01*
X65919850Y-63960472D01*
X66073386Y-63878405D01*
X66207962Y-63767962D01*
X66318405Y-63633386D01*
X66400472Y-63479850D01*
X66451008Y-63313254D01*
X66468072Y-63140000D01*
X66468072Y-61890000D01*
X66451008Y-61716746D01*
X66400472Y-61550150D01*
X66318405Y-61396614D01*
X66207962Y-61262038D01*
X66073386Y-61151595D01*
X65919850Y-61069528D01*
X65877500Y-61056681D01*
X65877500Y-59939823D01*
X65881176Y-59902500D01*
X65877500Y-59865177D01*
X65877500Y-59865167D01*
X65866503Y-59753514D01*
X65823046Y-59610253D01*
X65806555Y-59579401D01*
X65752474Y-59478223D01*
X65681299Y-59391497D01*
X65657501Y-59362499D01*
X65628504Y-59338702D01*
X62993804Y-56704003D01*
X62970001Y-56674999D01*
X62854276Y-56580026D01*
X62722247Y-56509454D01*
X62578986Y-56465997D01*
X62467333Y-56455000D01*
X62467322Y-56455000D01*
X62430000Y-56451324D01*
X62392678Y-56455000D01*
X57657302Y-56455000D01*
X56419090Y-55216789D01*
X56425472Y-55204850D01*
X56476008Y-55038254D01*
X56493072Y-54865000D01*
X56493072Y-53940000D01*
X60266928Y-53940000D01*
X60266928Y-54865000D01*
X60283992Y-55038254D01*
X60334528Y-55204850D01*
X60416595Y-55358386D01*
X60527038Y-55492962D01*
X60661614Y-55603405D01*
X60815150Y-55685472D01*
X60981746Y-55736008D01*
X61155000Y-55753072D01*
X63305000Y-55753072D01*
X63478254Y-55736008D01*
X63644850Y-55685472D01*
X63798386Y-55603405D01*
X63932962Y-55492962D01*
X64043405Y-55358386D01*
X64125472Y-55204850D01*
X64138319Y-55162500D01*
X71605178Y-55162500D01*
X71642500Y-55166176D01*
X71679822Y-55162500D01*
X71679833Y-55162500D01*
X71791486Y-55151503D01*
X71934747Y-55108046D01*
X72066776Y-55037474D01*
X72182501Y-54942501D01*
X72206303Y-54913498D01*
X72744802Y-54375000D01*
X74902699Y-54375000D01*
X75229627Y-54701928D01*
X74380000Y-54701928D01*
X74206746Y-54718992D01*
X74040150Y-54769528D01*
X73886614Y-54851595D01*
X73752038Y-54962038D01*
X73641595Y-55096614D01*
X73559528Y-55250150D01*
X73508992Y-55416746D01*
X73505224Y-55455000D01*
X73233711Y-55455000D01*
X73189774Y-55411063D01*
X73020256Y-55297795D01*
X72831898Y-55219774D01*
X72631939Y-55180000D01*
X72428061Y-55180000D01*
X72228102Y-55219774D01*
X72039744Y-55297795D01*
X71870226Y-55411063D01*
X71726063Y-55555226D01*
X71612795Y-55724744D01*
X71534774Y-55913102D01*
X71495000Y-56113061D01*
X71495000Y-56316939D01*
X71534774Y-56516898D01*
X71612795Y-56705256D01*
X71726063Y-56874774D01*
X71870226Y-57018937D01*
X72039744Y-57132205D01*
X72228102Y-57210226D01*
X72428061Y-57250000D01*
X72631939Y-57250000D01*
X72831898Y-57210226D01*
X73020256Y-57132205D01*
X73189774Y-57018937D01*
X73233711Y-56975000D01*
X73505224Y-56975000D01*
X73508992Y-57013254D01*
X73559528Y-57179850D01*
X73641595Y-57333386D01*
X73752038Y-57467962D01*
X73886614Y-57578405D01*
X74040150Y-57660472D01*
X74206746Y-57711008D01*
X74380000Y-57728072D01*
X75305000Y-57728072D01*
X75478254Y-57711008D01*
X75644850Y-57660472D01*
X75798386Y-57578405D01*
X75932962Y-57467962D01*
X76043405Y-57333386D01*
X76125472Y-57179850D01*
X76176008Y-57013254D01*
X76193072Y-56840000D01*
X76193072Y-55665374D01*
X76466928Y-55939230D01*
X76466928Y-56840000D01*
X76483992Y-57013254D01*
X76534528Y-57179850D01*
X76616595Y-57333386D01*
X76727038Y-57467962D01*
X76861614Y-57578405D01*
X77015150Y-57660472D01*
X77181746Y-57711008D01*
X77355000Y-57728072D01*
X78280000Y-57728072D01*
X78453254Y-57711008D01*
X78619850Y-57660472D01*
X78773386Y-57578405D01*
X78907962Y-57467962D01*
X79018405Y-57333386D01*
X79100472Y-57179850D01*
X79151008Y-57013254D01*
X79168072Y-56840000D01*
X79168072Y-55590000D01*
X79151008Y-55416746D01*
X79100472Y-55250150D01*
X79018405Y-55096614D01*
X78907962Y-54962038D01*
X78773386Y-54851595D01*
X78619850Y-54769528D01*
X78453254Y-54718992D01*
X78280000Y-54701928D01*
X77379230Y-54701928D01*
X75781304Y-53104003D01*
X75757501Y-53074999D01*
X75641776Y-52980026D01*
X75509747Y-52909454D01*
X75366486Y-52865997D01*
X75254833Y-52855000D01*
X75254822Y-52855000D01*
X75217500Y-52851324D01*
X75180178Y-52855000D01*
X72467322Y-52855000D01*
X72429999Y-52851324D01*
X72392676Y-52855000D01*
X72392667Y-52855000D01*
X72281014Y-52865997D01*
X72137753Y-52909454D01*
X72005724Y-52980026D01*
X71889999Y-53074999D01*
X71866201Y-53103998D01*
X71327699Y-53642500D01*
X64138319Y-53642500D01*
X64125472Y-53600150D01*
X64043405Y-53446614D01*
X63932962Y-53312038D01*
X63798386Y-53201595D01*
X63644850Y-53119528D01*
X63478254Y-53068992D01*
X63305000Y-53051928D01*
X61155000Y-53051928D01*
X60981746Y-53068992D01*
X60815150Y-53119528D01*
X60661614Y-53201595D01*
X60527038Y-53312038D01*
X60416595Y-53446614D01*
X60334528Y-53600150D01*
X60283992Y-53766746D01*
X60266928Y-53940000D01*
X56493072Y-53940000D01*
X56476008Y-53766746D01*
X56425472Y-53600150D01*
X56343405Y-53446614D01*
X56232962Y-53312038D01*
X56098386Y-53201595D01*
X55944850Y-53119528D01*
X55778254Y-53068992D01*
X55605000Y-53051928D01*
X53455000Y-53051928D01*
X53281746Y-53068992D01*
X53115150Y-53119528D01*
X52961614Y-53201595D01*
X52827038Y-53312038D01*
X52716595Y-53446614D01*
X52634528Y-53600150D01*
X52583992Y-53766746D01*
X52566928Y-53940000D01*
X48898444Y-53940000D01*
X48993228Y-53798147D01*
X49120246Y-53491496D01*
X49185000Y-53165958D01*
X49185000Y-52834042D01*
X49120246Y-52508504D01*
X48993228Y-52201853D01*
X48808825Y-51925875D01*
X48574125Y-51691175D01*
X48298147Y-51506772D01*
X47991496Y-51379754D01*
X47665958Y-51315000D01*
X47334042Y-51315000D01*
X47008504Y-51379754D01*
X46701853Y-51506772D01*
X46425875Y-51691175D01*
X46191175Y-51925875D01*
X46006772Y-52201853D01*
X45879754Y-52508504D01*
X45815000Y-52834042D01*
X45215149Y-52834042D01*
X45231944Y-51871890D01*
X45330463Y-50965000D01*
X52566928Y-50965000D01*
X52566928Y-51890000D01*
X52583992Y-52063254D01*
X52634528Y-52229850D01*
X52716595Y-52383386D01*
X52827038Y-52517962D01*
X52961614Y-52628405D01*
X53115150Y-52710472D01*
X53281746Y-52761008D01*
X53455000Y-52778072D01*
X55605000Y-52778072D01*
X55778254Y-52761008D01*
X55944850Y-52710472D01*
X56098386Y-52628405D01*
X56232962Y-52517962D01*
X56343405Y-52383386D01*
X56425472Y-52229850D01*
X56438319Y-52187500D01*
X60321681Y-52187500D01*
X60334528Y-52229850D01*
X60416595Y-52383386D01*
X60527038Y-52517962D01*
X60661614Y-52628405D01*
X60815150Y-52710472D01*
X60981746Y-52761008D01*
X61155000Y-52778072D01*
X63305000Y-52778072D01*
X63478254Y-52761008D01*
X63644850Y-52710472D01*
X63798386Y-52628405D01*
X63932962Y-52517962D01*
X64043405Y-52383386D01*
X64125472Y-52229850D01*
X64176008Y-52063254D01*
X64193072Y-51890000D01*
X64193072Y-50965000D01*
X64176008Y-50791746D01*
X64125472Y-50625150D01*
X64043405Y-50471614D01*
X63932962Y-50337038D01*
X63798386Y-50226595D01*
X63644850Y-50144528D01*
X63478254Y-50093992D01*
X63305000Y-50076928D01*
X61954230Y-50076928D01*
X61090000Y-49212699D01*
X61090000Y-47269909D01*
X61104463Y-47263918D01*
X61372252Y-47084987D01*
X61599987Y-46857252D01*
X61778918Y-46589463D01*
X61902168Y-46291912D01*
X61965000Y-45976033D01*
X61965000Y-45653967D01*
X65195000Y-45653967D01*
X65195000Y-45976033D01*
X65257832Y-46291912D01*
X65381082Y-46589463D01*
X65560013Y-46857252D01*
X65787748Y-47084987D01*
X66055537Y-47263918D01*
X66353088Y-47387168D01*
X66668967Y-47450000D01*
X66991033Y-47450000D01*
X67306912Y-47387168D01*
X67604463Y-47263918D01*
X67872252Y-47084987D01*
X68099987Y-46857252D01*
X68278918Y-46589463D01*
X68402168Y-46291912D01*
X68465000Y-45976033D01*
X68465000Y-45653967D01*
X68445109Y-45553967D01*
X80895000Y-45553967D01*
X80895000Y-45876033D01*
X80957832Y-46191912D01*
X81081082Y-46489463D01*
X81260013Y-46757252D01*
X81487748Y-46984987D01*
X81755537Y-47163918D01*
X81770000Y-47169909D01*
X81770001Y-57277668D01*
X81766324Y-57315000D01*
X81770001Y-57352333D01*
X81777799Y-57431501D01*
X81780998Y-57463985D01*
X81824454Y-57607246D01*
X81895026Y-57739276D01*
X81950013Y-57806277D01*
X81990000Y-57855001D01*
X82018998Y-57878799D01*
X90266201Y-66126003D01*
X90289999Y-66155001D01*
X90318997Y-66178799D01*
X90405724Y-66249974D01*
X90537753Y-66320546D01*
X90681014Y-66364003D01*
X90830000Y-66378677D01*
X90867333Y-66375000D01*
X108392678Y-66375000D01*
X108430000Y-66378676D01*
X108467322Y-66375000D01*
X108467333Y-66375000D01*
X108578986Y-66364003D01*
X108722247Y-66320546D01*
X108854276Y-66249974D01*
X108970001Y-66155001D01*
X108993804Y-66125997D01*
X110641004Y-64478798D01*
X110670001Y-64455001D01*
X110696332Y-64422917D01*
X110764974Y-64339277D01*
X110835546Y-64207247D01*
X110852324Y-64151935D01*
X110879003Y-64063986D01*
X110890000Y-63952333D01*
X110890000Y-63952324D01*
X110893676Y-63915001D01*
X110890000Y-63877678D01*
X110890000Y-59452325D01*
X110893676Y-59415000D01*
X110890000Y-59377675D01*
X110890000Y-59377667D01*
X110879003Y-59266014D01*
X110835546Y-59122753D01*
X110764974Y-58990724D01*
X110670001Y-58874999D01*
X110640997Y-58851196D01*
X110606304Y-58816503D01*
X110582501Y-58787499D01*
X110466776Y-58692526D01*
X110334747Y-58621954D01*
X110191486Y-58578497D01*
X110079833Y-58567500D01*
X110079822Y-58567500D01*
X110042500Y-58563824D01*
X110005178Y-58567500D01*
X108838319Y-58567500D01*
X108825472Y-58525150D01*
X108743405Y-58371614D01*
X108632962Y-58237038D01*
X108498386Y-58126595D01*
X108344850Y-58044528D01*
X108178254Y-57993992D01*
X108005000Y-57976928D01*
X105855000Y-57976928D01*
X105681746Y-57993992D01*
X105515150Y-58044528D01*
X105361614Y-58126595D01*
X105227038Y-58237038D01*
X105116595Y-58371614D01*
X105034528Y-58525150D01*
X104983992Y-58691746D01*
X104966928Y-58865000D01*
X104966928Y-59790000D01*
X104983992Y-59963254D01*
X105034528Y-60129850D01*
X105116595Y-60283386D01*
X105227038Y-60417962D01*
X105361614Y-60528405D01*
X105515150Y-60610472D01*
X105681746Y-60661008D01*
X105855000Y-60678072D01*
X108005000Y-60678072D01*
X108178254Y-60661008D01*
X108344850Y-60610472D01*
X108498386Y-60528405D01*
X108632962Y-60417962D01*
X108743405Y-60283386D01*
X108825472Y-60129850D01*
X108838319Y-60087500D01*
X109370001Y-60087500D01*
X109370000Y-61077667D01*
X109370000Y-61490522D01*
X109370001Y-61490531D01*
X109370000Y-63600198D01*
X108115199Y-64855000D01*
X91144802Y-64855000D01*
X85502863Y-59213061D01*
X91995000Y-59213061D01*
X91995000Y-59416939D01*
X92034774Y-59616898D01*
X92112795Y-59805256D01*
X92226063Y-59974774D01*
X92370226Y-60118937D01*
X92539744Y-60232205D01*
X92728102Y-60310226D01*
X92928061Y-60350000D01*
X92990198Y-60350000D01*
X93082501Y-60442303D01*
X93082501Y-61056681D01*
X93040150Y-61069528D01*
X92886614Y-61151595D01*
X92752038Y-61262038D01*
X92641595Y-61396614D01*
X92559528Y-61550150D01*
X92508992Y-61716746D01*
X92491928Y-61890000D01*
X92491928Y-63140000D01*
X92508992Y-63313254D01*
X92559528Y-63479850D01*
X92641595Y-63633386D01*
X92752038Y-63767962D01*
X92886614Y-63878405D01*
X93040150Y-63960472D01*
X93206746Y-64011008D01*
X93380000Y-64028072D01*
X94305000Y-64028072D01*
X94478254Y-64011008D01*
X94644850Y-63960472D01*
X94798386Y-63878405D01*
X94932962Y-63767962D01*
X95043405Y-63633386D01*
X95125472Y-63479850D01*
X95176008Y-63313254D01*
X95193072Y-63140000D01*
X95193072Y-61890000D01*
X95466928Y-61890000D01*
X95466928Y-63140000D01*
X95483992Y-63313254D01*
X95534528Y-63479850D01*
X95616595Y-63633386D01*
X95727038Y-63767962D01*
X95861614Y-63878405D01*
X96015150Y-63960472D01*
X96181746Y-64011008D01*
X96355000Y-64028072D01*
X97280000Y-64028072D01*
X97453254Y-64011008D01*
X97619850Y-63960472D01*
X97773386Y-63878405D01*
X97907962Y-63767962D01*
X98018405Y-63633386D01*
X98100472Y-63479850D01*
X98151008Y-63313254D01*
X98168072Y-63140000D01*
X98168072Y-62279290D01*
X104966928Y-62279290D01*
X104966928Y-62765000D01*
X104983992Y-62938254D01*
X105034528Y-63104850D01*
X105116595Y-63258386D01*
X105227038Y-63392962D01*
X105361614Y-63503405D01*
X105515150Y-63585472D01*
X105681746Y-63636008D01*
X105855000Y-63653072D01*
X108005000Y-63653072D01*
X108178254Y-63636008D01*
X108344850Y-63585472D01*
X108498386Y-63503405D01*
X108632962Y-63392962D01*
X108743405Y-63258386D01*
X108825472Y-63104850D01*
X108876008Y-62938254D01*
X108893072Y-62765000D01*
X108893072Y-61840000D01*
X108876008Y-61666746D01*
X108825472Y-61500150D01*
X108743405Y-61346614D01*
X108632962Y-61212038D01*
X108498386Y-61101595D01*
X108344850Y-61019528D01*
X108178254Y-60968992D01*
X108005000Y-60951928D01*
X106653452Y-60951928D01*
X106571066Y-60884316D01*
X106439037Y-60813744D01*
X106295776Y-60770287D01*
X106184123Y-60759290D01*
X106184112Y-60759290D01*
X106146790Y-60755614D01*
X106109468Y-60759290D01*
X97850532Y-60759290D01*
X97813209Y-60755614D01*
X97775886Y-60759290D01*
X97775877Y-60759290D01*
X97664224Y-60770287D01*
X97520963Y-60813744D01*
X97388934Y-60884316D01*
X97273209Y-60979289D01*
X97254630Y-61001928D01*
X96355000Y-61001928D01*
X96181746Y-61018992D01*
X96015150Y-61069528D01*
X95861614Y-61151595D01*
X95727038Y-61262038D01*
X95616595Y-61396614D01*
X95534528Y-61550150D01*
X95483992Y-61716746D01*
X95466928Y-61890000D01*
X95193072Y-61890000D01*
X95176008Y-61716746D01*
X95125472Y-61550150D01*
X95043405Y-61396614D01*
X94932962Y-61262038D01*
X94798386Y-61151595D01*
X94644850Y-61069528D01*
X94602500Y-61056681D01*
X94602500Y-60164833D01*
X94606177Y-60127500D01*
X94591503Y-59978514D01*
X94548046Y-59835253D01*
X94477474Y-59703224D01*
X94406299Y-59616497D01*
X94382501Y-59587499D01*
X94353502Y-59563701D01*
X94065000Y-59275198D01*
X94065000Y-59213061D01*
X94025226Y-59013102D01*
X93947205Y-58824744D01*
X93918653Y-58782013D01*
X93918653Y-57678072D01*
X94392500Y-57678072D01*
X94565754Y-57661008D01*
X94732350Y-57610472D01*
X94885886Y-57528405D01*
X95020462Y-57417962D01*
X95130905Y-57283386D01*
X95212972Y-57129850D01*
X95263508Y-56963254D01*
X95280572Y-56790000D01*
X95280572Y-55540000D01*
X95554428Y-55540000D01*
X95554428Y-56790000D01*
X95571492Y-56963254D01*
X95622028Y-57129850D01*
X95704095Y-57283386D01*
X95814538Y-57417962D01*
X95949114Y-57528405D01*
X96102650Y-57610472D01*
X96269246Y-57661008D01*
X96442500Y-57678072D01*
X97367500Y-57678072D01*
X97540754Y-57661008D01*
X97707350Y-57610472D01*
X97860886Y-57528405D01*
X97995462Y-57417962D01*
X98105905Y-57283386D01*
X98187972Y-57129850D01*
X98238508Y-56963254D01*
X98255572Y-56790000D01*
X98255572Y-56050000D01*
X106821681Y-56050000D01*
X106834528Y-56092350D01*
X106916595Y-56245886D01*
X107027038Y-56380462D01*
X107161614Y-56490905D01*
X107315150Y-56572972D01*
X107481746Y-56623508D01*
X107655000Y-56640572D01*
X109805000Y-56640572D01*
X109978254Y-56623508D01*
X110144850Y-56572972D01*
X110298386Y-56490905D01*
X110432962Y-56380462D01*
X110543405Y-56245886D01*
X110625472Y-56092350D01*
X110676008Y-55925754D01*
X110693072Y-55752500D01*
X110693072Y-54827500D01*
X110676008Y-54654246D01*
X110625472Y-54487650D01*
X110543405Y-54334114D01*
X110432962Y-54199538D01*
X110298386Y-54089095D01*
X110144850Y-54007028D01*
X109978254Y-53956492D01*
X109805000Y-53939428D01*
X107655000Y-53939428D01*
X107481746Y-53956492D01*
X107315150Y-54007028D01*
X107161614Y-54089095D01*
X107027038Y-54199538D01*
X106916595Y-54334114D01*
X106834528Y-54487650D01*
X106821681Y-54530000D01*
X97817323Y-54530000D01*
X97780000Y-54526324D01*
X97742677Y-54530000D01*
X97742667Y-54530000D01*
X97631014Y-54540997D01*
X97487753Y-54584454D01*
X97361520Y-54651928D01*
X96442500Y-54651928D01*
X96269246Y-54668992D01*
X96102650Y-54719528D01*
X95949114Y-54801595D01*
X95814538Y-54912038D01*
X95704095Y-55046614D01*
X95622028Y-55200150D01*
X95571492Y-55366746D01*
X95554428Y-55540000D01*
X95280572Y-55540000D01*
X95263508Y-55366746D01*
X95212972Y-55200150D01*
X95130905Y-55046614D01*
X95020462Y-54912038D01*
X94885886Y-54801595D01*
X94732350Y-54719528D01*
X94565754Y-54668992D01*
X94392500Y-54651928D01*
X93467500Y-54651928D01*
X93294246Y-54668992D01*
X93127650Y-54719528D01*
X92974114Y-54801595D01*
X92839538Y-54912038D01*
X92729095Y-55046614D01*
X92647028Y-55200150D01*
X92596492Y-55366746D01*
X92579428Y-55540000D01*
X92579428Y-56444141D01*
X92573533Y-56451324D01*
X92523679Y-56512071D01*
X92464114Y-56623508D01*
X92453107Y-56644101D01*
X92409650Y-56787362D01*
X92398653Y-56899015D01*
X92398653Y-56899025D01*
X92394977Y-56936347D01*
X92398653Y-56973670D01*
X92398654Y-58492068D01*
X92370226Y-58511063D01*
X92226063Y-58655226D01*
X92112795Y-58824744D01*
X92034774Y-59013102D01*
X91995000Y-59213061D01*
X85502863Y-59213061D01*
X83290000Y-57000199D01*
X83290000Y-47169909D01*
X83304463Y-47163918D01*
X83572252Y-46984987D01*
X83799987Y-46757252D01*
X83978918Y-46489463D01*
X84102168Y-46191912D01*
X84165000Y-45876033D01*
X84165000Y-45553967D01*
X87395000Y-45553967D01*
X87395000Y-45876033D01*
X87457832Y-46191912D01*
X87581082Y-46489463D01*
X87760013Y-46757252D01*
X87987748Y-46984987D01*
X88255537Y-47163918D01*
X88553088Y-47287168D01*
X88868967Y-47350000D01*
X89191033Y-47350000D01*
X89506912Y-47287168D01*
X89804463Y-47163918D01*
X90072252Y-46984987D01*
X90299987Y-46757252D01*
X90478918Y-46489463D01*
X90602168Y-46191912D01*
X90665000Y-45876033D01*
X90665000Y-45653967D01*
X96895000Y-45653967D01*
X96895000Y-45976033D01*
X96957832Y-46291912D01*
X97081082Y-46589463D01*
X97260013Y-46857252D01*
X97487748Y-47084987D01*
X97755537Y-47263918D01*
X97770001Y-47269909D01*
X97770000Y-48953921D01*
X97735998Y-49066015D01*
X97721324Y-49215000D01*
X97735998Y-49363985D01*
X97779454Y-49507246D01*
X97850026Y-49639276D01*
X97944999Y-49755001D01*
X97974003Y-49778804D01*
X100237990Y-52042792D01*
X100261789Y-52071791D01*
X100377514Y-52166764D01*
X100509543Y-52237336D01*
X100652804Y-52280793D01*
X100764457Y-52291790D01*
X100764467Y-52291790D01*
X100801790Y-52295466D01*
X100839113Y-52291790D01*
X106766928Y-52291790D01*
X106766928Y-52777500D01*
X106783992Y-52950754D01*
X106834528Y-53117350D01*
X106916595Y-53270886D01*
X107027038Y-53405462D01*
X107161614Y-53515905D01*
X107315150Y-53597972D01*
X107481746Y-53648508D01*
X107655000Y-53665572D01*
X109805000Y-53665572D01*
X109978254Y-53648508D01*
X110144850Y-53597972D01*
X110298386Y-53515905D01*
X110432962Y-53405462D01*
X110543405Y-53270886D01*
X110625472Y-53117350D01*
X110676008Y-52950754D01*
X110687503Y-52834042D01*
X115815000Y-52834042D01*
X115815000Y-53165958D01*
X115879754Y-53491496D01*
X116006772Y-53798147D01*
X116191175Y-54074125D01*
X116425875Y-54308825D01*
X116701853Y-54493228D01*
X117008504Y-54620246D01*
X117334042Y-54685000D01*
X117665958Y-54685000D01*
X117991496Y-54620246D01*
X118298147Y-54493228D01*
X118574125Y-54308825D01*
X118808825Y-54074125D01*
X118993228Y-53798147D01*
X119120246Y-53491496D01*
X119185000Y-53165958D01*
X119185000Y-52834042D01*
X119120246Y-52508504D01*
X118993228Y-52201853D01*
X118808825Y-51925875D01*
X118574125Y-51691175D01*
X118298147Y-51506772D01*
X117991496Y-51379754D01*
X117665958Y-51315000D01*
X117334042Y-51315000D01*
X117008504Y-51379754D01*
X116701853Y-51506772D01*
X116425875Y-51691175D01*
X116191175Y-51925875D01*
X116006772Y-52201853D01*
X115879754Y-52508504D01*
X115815000Y-52834042D01*
X110687503Y-52834042D01*
X110693072Y-52777500D01*
X110693072Y-51852500D01*
X110676008Y-51679246D01*
X110625472Y-51512650D01*
X110543405Y-51359114D01*
X110432962Y-51224538D01*
X110298386Y-51114095D01*
X110144850Y-51032028D01*
X109978254Y-50981492D01*
X109805000Y-50964428D01*
X108453452Y-50964428D01*
X108371066Y-50896816D01*
X108239037Y-50826244D01*
X108095776Y-50782787D01*
X107984123Y-50771790D01*
X107984112Y-50771790D01*
X107946790Y-50768114D01*
X107909468Y-50771790D01*
X101116592Y-50771790D01*
X99290000Y-48945199D01*
X99290000Y-47269909D01*
X99304463Y-47263918D01*
X99572252Y-47084987D01*
X99799987Y-46857252D01*
X99978918Y-46589463D01*
X100102168Y-46291912D01*
X100165000Y-45976033D01*
X100165000Y-45653967D01*
X103395000Y-45653967D01*
X103395000Y-45976033D01*
X103457832Y-46291912D01*
X103581082Y-46589463D01*
X103760013Y-46857252D01*
X103987748Y-47084987D01*
X104255537Y-47263918D01*
X104553088Y-47387168D01*
X104868967Y-47450000D01*
X105191033Y-47450000D01*
X105506912Y-47387168D01*
X105804463Y-47263918D01*
X106072252Y-47084987D01*
X106299987Y-46857252D01*
X106478918Y-46589463D01*
X106602168Y-46291912D01*
X106665000Y-45976033D01*
X106665000Y-45653967D01*
X106602168Y-45338088D01*
X106478918Y-45040537D01*
X106299987Y-44772748D01*
X106072252Y-44545013D01*
X105804463Y-44366082D01*
X105506912Y-44242832D01*
X105191033Y-44180000D01*
X104868967Y-44180000D01*
X104553088Y-44242832D01*
X104255537Y-44366082D01*
X103987748Y-44545013D01*
X103760013Y-44772748D01*
X103581082Y-45040537D01*
X103457832Y-45338088D01*
X103395000Y-45653967D01*
X100165000Y-45653967D01*
X100102168Y-45338088D01*
X99978918Y-45040537D01*
X99799987Y-44772748D01*
X99572252Y-44545013D01*
X99304463Y-44366082D01*
X99006912Y-44242832D01*
X98691033Y-44180000D01*
X98368967Y-44180000D01*
X98053088Y-44242832D01*
X97755537Y-44366082D01*
X97487748Y-44545013D01*
X97260013Y-44772748D01*
X97081082Y-45040537D01*
X96957832Y-45338088D01*
X96895000Y-45653967D01*
X90665000Y-45653967D01*
X90665000Y-45553967D01*
X90602168Y-45238088D01*
X90478918Y-44940537D01*
X90299987Y-44672748D01*
X90072252Y-44445013D01*
X89804463Y-44266082D01*
X89506912Y-44142832D01*
X89191033Y-44080000D01*
X88868967Y-44080000D01*
X88553088Y-44142832D01*
X88255537Y-44266082D01*
X87987748Y-44445013D01*
X87760013Y-44672748D01*
X87581082Y-44940537D01*
X87457832Y-45238088D01*
X87395000Y-45553967D01*
X84165000Y-45553967D01*
X84102168Y-45238088D01*
X83978918Y-44940537D01*
X83799987Y-44672748D01*
X83572252Y-44445013D01*
X83304463Y-44266082D01*
X83006912Y-44142832D01*
X82691033Y-44080000D01*
X82368967Y-44080000D01*
X82053088Y-44142832D01*
X81755537Y-44266082D01*
X81487748Y-44445013D01*
X81260013Y-44672748D01*
X81081082Y-44940537D01*
X80957832Y-45238088D01*
X80895000Y-45553967D01*
X68445109Y-45553967D01*
X68402168Y-45338088D01*
X68278918Y-45040537D01*
X68099987Y-44772748D01*
X67872252Y-44545013D01*
X67604463Y-44366082D01*
X67306912Y-44242832D01*
X66991033Y-44180000D01*
X66668967Y-44180000D01*
X66353088Y-44242832D01*
X66055537Y-44366082D01*
X65787748Y-44545013D01*
X65560013Y-44772748D01*
X65381082Y-45040537D01*
X65257832Y-45338088D01*
X65195000Y-45653967D01*
X61965000Y-45653967D01*
X61902168Y-45338088D01*
X61778918Y-45040537D01*
X61599987Y-44772748D01*
X61372252Y-44545013D01*
X61104463Y-44366082D01*
X60806912Y-44242832D01*
X60491033Y-44180000D01*
X60168967Y-44180000D01*
X59853088Y-44242832D01*
X59555537Y-44366082D01*
X59287748Y-44545013D01*
X59060013Y-44772748D01*
X58881082Y-45040537D01*
X58757832Y-45338088D01*
X58695000Y-45653967D01*
X58695000Y-45976033D01*
X58757832Y-46291912D01*
X58881082Y-46589463D01*
X59060013Y-46857252D01*
X59287748Y-47084987D01*
X59555537Y-47263918D01*
X59570000Y-47269909D01*
X59570001Y-49490168D01*
X59566324Y-49527500D01*
X59570001Y-49564833D01*
X59580998Y-49676486D01*
X59592321Y-49713814D01*
X59624454Y-49819746D01*
X59695026Y-49951776D01*
X59766201Y-50038502D01*
X59790000Y-50067501D01*
X59818998Y-50091299D01*
X60340910Y-50613211D01*
X60334528Y-50625150D01*
X60321681Y-50667500D01*
X56438319Y-50667500D01*
X56425472Y-50625150D01*
X56343405Y-50471614D01*
X56232962Y-50337038D01*
X56098386Y-50226595D01*
X55944850Y-50144528D01*
X55778254Y-50093992D01*
X55605000Y-50076928D01*
X53455000Y-50076928D01*
X53281746Y-50093992D01*
X53115150Y-50144528D01*
X52961614Y-50226595D01*
X52827038Y-50337038D01*
X52716595Y-50471614D01*
X52634528Y-50625150D01*
X52583992Y-50791746D01*
X52566928Y-50965000D01*
X45330463Y-50965000D01*
X45411882Y-50215532D01*
X45741204Y-48582274D01*
X46217192Y-46985601D01*
X46835938Y-45438626D01*
X47592336Y-43954114D01*
X48480168Y-42544256D01*
X49492129Y-41220666D01*
X49553461Y-41153967D01*
X65195000Y-41153967D01*
X65195000Y-41476033D01*
X65257832Y-41791912D01*
X65381082Y-42089463D01*
X65560013Y-42357252D01*
X65787748Y-42584987D01*
X66055537Y-42763918D01*
X66353088Y-42887168D01*
X66668967Y-42950000D01*
X66991033Y-42950000D01*
X67306912Y-42887168D01*
X67604463Y-42763918D01*
X67872252Y-42584987D01*
X68099987Y-42357252D01*
X68278918Y-42089463D01*
X68402168Y-41791912D01*
X68465000Y-41476033D01*
X68465000Y-41153967D01*
X68445109Y-41053967D01*
X87395000Y-41053967D01*
X87395000Y-41376033D01*
X87457832Y-41691912D01*
X87581082Y-41989463D01*
X87760013Y-42257252D01*
X87987748Y-42484987D01*
X88255537Y-42663918D01*
X88553088Y-42787168D01*
X88868967Y-42850000D01*
X89191033Y-42850000D01*
X89506912Y-42787168D01*
X89804463Y-42663918D01*
X90072252Y-42484987D01*
X90299987Y-42257252D01*
X90478918Y-41989463D01*
X90602168Y-41691912D01*
X90665000Y-41376033D01*
X90665000Y-41153967D01*
X103395000Y-41153967D01*
X103395000Y-41476033D01*
X103457832Y-41791912D01*
X103581082Y-42089463D01*
X103760013Y-42357252D01*
X103987748Y-42584987D01*
X104255537Y-42763918D01*
X104553088Y-42887168D01*
X104868967Y-42950000D01*
X105191033Y-42950000D01*
X105506912Y-42887168D01*
X105804463Y-42763918D01*
X106072252Y-42584987D01*
X106299987Y-42357252D01*
X106478918Y-42089463D01*
X106602168Y-41791912D01*
X106665000Y-41476033D01*
X106665000Y-41153967D01*
X106602168Y-40838088D01*
X106478918Y-40540537D01*
X106299987Y-40272748D01*
X106072252Y-40045013D01*
X105804463Y-39866082D01*
X105506912Y-39742832D01*
X105191033Y-39680000D01*
X104868967Y-39680000D01*
X104553088Y-39742832D01*
X104255537Y-39866082D01*
X103987748Y-40045013D01*
X103760013Y-40272748D01*
X103581082Y-40540537D01*
X103457832Y-40838088D01*
X103395000Y-41153967D01*
X90665000Y-41153967D01*
X90665000Y-41053967D01*
X90602168Y-40738088D01*
X90478918Y-40440537D01*
X90299987Y-40172748D01*
X90072252Y-39945013D01*
X89804463Y-39766082D01*
X89506912Y-39642832D01*
X89191033Y-39580000D01*
X88868967Y-39580000D01*
X88553088Y-39642832D01*
X88255537Y-39766082D01*
X87987748Y-39945013D01*
X87760013Y-40172748D01*
X87581082Y-40440537D01*
X87457832Y-40738088D01*
X87395000Y-41053967D01*
X68445109Y-41053967D01*
X68402168Y-40838088D01*
X68278918Y-40540537D01*
X68099987Y-40272748D01*
X67872252Y-40045013D01*
X67604463Y-39866082D01*
X67306912Y-39742832D01*
X66991033Y-39680000D01*
X66668967Y-39680000D01*
X66353088Y-39742832D01*
X66055537Y-39866082D01*
X65787748Y-40045013D01*
X65560013Y-40272748D01*
X65381082Y-40540537D01*
X65257832Y-40838088D01*
X65195000Y-41153967D01*
X49553461Y-41153967D01*
X50619885Y-39994240D01*
X51854161Y-38875065D01*
X53184784Y-37872370D01*
X54600803Y-36994402D01*
X56090571Y-36248382D01*
X57641814Y-35640456D01*
X59241774Y-35175624D01*
X60556156Y-34920134D01*
X60524188Y-35025518D01*
X60511928Y-35150000D01*
X60511928Y-36850000D01*
X60524188Y-36974482D01*
X60560498Y-37094180D01*
X60619463Y-37204494D01*
X60698815Y-37301185D01*
X60795506Y-37380537D01*
X60905820Y-37439502D01*
X61025518Y-37475812D01*
X61150000Y-37488072D01*
X62850000Y-37488072D01*
X62974482Y-37475812D01*
X63094180Y-37439502D01*
X63204494Y-37380537D01*
X63301185Y-37301185D01*
X63380537Y-37204494D01*
X63439502Y-37094180D01*
X63475812Y-36974482D01*
X63488072Y-36850000D01*
X63488072Y-36834042D01*
X70815000Y-36834042D01*
X70815000Y-37165958D01*
X70879754Y-37491496D01*
X71006772Y-37798147D01*
X71191175Y-38074125D01*
X71425875Y-38308825D01*
X71701853Y-38493228D01*
X72008504Y-38620246D01*
X72334042Y-38685000D01*
X72665958Y-38685000D01*
X72991496Y-38620246D01*
X73298147Y-38493228D01*
X73574125Y-38308825D01*
X73808825Y-38074125D01*
X73993228Y-37798147D01*
X74120246Y-37491496D01*
X74185000Y-37165958D01*
X74185000Y-36834042D01*
X90815000Y-36834042D01*
X90815000Y-37165958D01*
X90879754Y-37491496D01*
X91006772Y-37798147D01*
X91191175Y-38074125D01*
X91425875Y-38308825D01*
X91701853Y-38493228D01*
X92008504Y-38620246D01*
X92334042Y-38685000D01*
X92665958Y-38685000D01*
X92991496Y-38620246D01*
X93298147Y-38493228D01*
X93574125Y-38308825D01*
X93808825Y-38074125D01*
X93993228Y-37798147D01*
X94120246Y-37491496D01*
X94185000Y-37165958D01*
X94185000Y-36834042D01*
X94120246Y-36508504D01*
X93993228Y-36201853D01*
X93808825Y-35925875D01*
X93574125Y-35691175D01*
X93298147Y-35506772D01*
X92991496Y-35379754D01*
X92665958Y-35315000D01*
X92334042Y-35315000D01*
X92008504Y-35379754D01*
X91701853Y-35506772D01*
X91425875Y-35691175D01*
X91191175Y-35925875D01*
X91006772Y-36201853D01*
X90879754Y-36508504D01*
X90815000Y-36834042D01*
X74185000Y-36834042D01*
X74120246Y-36508504D01*
X73993228Y-36201853D01*
X73808825Y-35925875D01*
X73574125Y-35691175D01*
X73298147Y-35506772D01*
X72991496Y-35379754D01*
X72665958Y-35315000D01*
X72334042Y-35315000D01*
X72008504Y-35379754D01*
X71701853Y-35506772D01*
X71425875Y-35691175D01*
X71191175Y-35925875D01*
X71006772Y-36201853D01*
X70879754Y-36508504D01*
X70815000Y-36834042D01*
X63488072Y-36834042D01*
X63488072Y-35150000D01*
X63475812Y-35025518D01*
X63439502Y-34905820D01*
X63380537Y-34795506D01*
X63301185Y-34698815D01*
X63264280Y-34668528D01*
X63569533Y-34660001D01*
X101644471Y-34660001D01*
X103324407Y-34736286D01*
M02*
